<svg width="30" height="26" fill="none" xmlns="http://www.w3.org/2000/svg"><path fill-rule="evenodd" clip-rule="evenodd" d="M23.061 22.58l4.205-10.526c.301-.774.674-1.645.953-2.429a1.037 1.037 0 00-.24-.903.875.875 0 00-.402-.253.973.973 0 00-.24-.032l-.364.002-6.128.023-13.318.052-3.396.013-.845.003c-.27.001-.627-.008-.674.042-.312.094-.549.448-.554.803-.02.273.275.907.43 1.404l.547 1.556 1.075 3.053c.706 2.004 1.39 3.942 2.035 5.78.18.54.25.724.502.87.121.067.22.094.378.092a9244.88 9244.88 0 003.345-.013l11.335-.043v1.283l-11.335-.044-2.652-.01-.693-.003a1.85 1.85 0 01-.968-.258 1.928 1.928 0 01-.703-.726c-.18-.35-.204-.528-.298-.77l-1.99-5.795-1.052-3.06-.536-1.56-.27-.788c-.078-.22-.229-.617-.206-.999.022-.756.506-1.512 1.283-1.762.49-.143.712-.07 1.001-.088l.845.003c1.13.004 2.263.01 3.396.013l13.318.052 6.128.023.364.002c.155.002.32.023.474.067.311.091.585.273.791.503.413.468.57 1.09.415 1.7-.34.94-.68 1.694-.999 2.501l-4.286 10.493-.67-.27z" fill="#000"/><path fill-rule="evenodd" clip-rule="evenodd" d="M22.288 11.788h-.006l-14.823.593a.146.146 0 00-.118.064.15.15 0 00-.024.132l.314 1.095a.152.152 0 00.147.11h13.915a.154.154 0 00.144-.101l.596-1.688a.15.15 0 00-.02-.142.152.152 0 00-.125-.063zm-.596 2.745H7.778a.905.905 0 01-.868-.656l-.313-1.094a.897.897 0 01.135-.778.896.896 0 01.698-.373l14.823-.593a.9.9 0 01.764.367.907.907 0 01.123.838l-.596 1.687a.904.904 0 01-.852.602zm-1.021 4.424c.076-.001.138-.046.154-.12l.361-1.534a.152.152 0 00-.03-.131.15.15 0 00-.12-.058h-.002L8.942 17.2a.153.153 0 00-.123.062.151.151 0 00-.025.134l.311 1.085a.153.153 0 00.142.11l11.424.366zm.005.75h-.028l-11.424-.365a.9.9 0 01-.84-.655l-.31-1.085a.897.897 0 01.145-.79.897.897 0 01.717-.362l12.093-.086a.838.838 0 01.713.34.896.896 0 01.174.77l-.36 1.536a.907.907 0 01-.88.697zM6.568 7.71s.732-.887 1.888-2.17a89.256 89.256 0 012.029-2.15c.385-.382.788-.772 1.215-1.16.216-.193.43-.387.67-.575l.178-.142.045-.035.055-.04.088-.062c.137-.093.299-.193.477-.263.179-.072.408-.136.677-.102.273.03.51.183.653.315.075.067.135.13.188.188l.038.042.042.05.016.022c.019.025.04.05.088.129.146.255.174.48.168.702-.06.863-.651 1.348-.983 1.71a45.942 45.942 0 01-2.115 2.069c-.628.594-1.18 1.06-1.56 1.39-.382.329-.61.508-.61.508l-.41-.441 1.97-2.074 2-2.132c.166-.185.394-.417.489-.561.116-.168.194-.373.193-.506.005-.06-.024-.123-.02-.115.016.015-.006-.016-.031-.047l-.017-.021-.008-.01a.395.395 0 00.02.024l-.004-.004-.033-.038a1.937 1.937 0 00-.112-.117c-.067-.06-.085-.064-.1-.066a.347.347 0 00-.162.033c-.09.034-.175.083-.277.148l-.09.06a1.343 1.343 0 00-.031.023l-.04.03-.16.124c-.212.162-.423.346-.63.526-.416.364-.816.743-1.202 1.11a85.937 85.937 0 00-2.105 2.033L7.01 8.118l-.443-.407zm16.385.59l-2.045-1.49a95.81 95.81 0 00-2.106-1.505l-1.196-.829-.62-.413-.316-.2c-.093-.06-.248-.159-.244-.142a.395.395 0 00-.338.035c-.05.016-.284.285-.342.372a.383.383 0 00-.019.326.468.468 0 00.173.218l.143.102c.781.542 1.497 1.068 2.111 1.518a75.292 75.292 0 012.03 1.525l-.34.495s-.87-.525-2.143-1.36c-.637-.416-1.38-.9-2.164-1.44l-.15-.102a1.373 1.373 0 01-.502-.619 1.297 1.297 0 01.145-1.248l.057-.075.14-.163c.055-.074.232-.262.392-.345a1.314 1.314 0 011.126-.096c.245.1.293.161.415.232l.322.212.63.43c.413.287.816.575 1.201.86a94.341 94.341 0 012.064 1.598 87.833 87.833 0 011.95 1.633l-.374.471z" fill="#000"/></svg>