<svg width="24" height="21" fill="none" xmlns="http://www.w3.org/2000/svg"><path fill-rule="evenodd" clip-rule="evenodd" d="M12.474 6.41l-10.21-.035-.808.413s-.172 1.064.665 3.48l2.162 6.244s-.852 1.564 3.84 1.564 9.46-.458 10.226-1.707c.767-1.249 2.64-7.38 2.895-8.036.256-.656-.413-1.89-1.447-1.923-1.035-.035-7.323 0-7.323 0z" fill="#B4E0F1"/><path fill-rule="evenodd" clip-rule="evenodd" d="M18.449 17.968l3.364-8.376c.24-.616.54-1.309.762-1.933a.822.822 0 00-.192-.718.7.7 0 00-.321-.202.782.782 0 00-.192-.025l-.292.002-4.902.018-10.654.041-2.717.01-.676.003c-.216 0-.502-.006-.54.033-.249.075-.439.357-.443.64-.016.217.22.721.344 1.117l.438 1.238.86 2.43 1.628 4.598c.144.43.2.577.402.693a.545.545 0 00.302.073l.554-.002 2.122-.008 9.068-.034v1.02l-9.068-.034-2.122-.008-.554-.003a1.486 1.486 0 01-.774-.205 1.539 1.539 0 01-.563-.578c-.145-.28-.163-.42-.238-.613l-1.593-4.61-.84-2.437-.43-1.241-.216-.626C.904 8.056.783 7.74.802 7.436c.017-.602.404-1.203 1.026-1.402.392-.114.57-.057.8-.07l.677.002 2.717.01 10.654.042 4.902.018.292.002c.124.001.256.018.379.053.249.072.468.217.633.4.33.373.455.867.332 1.353-.272.747-.544 1.348-.8 1.99l-3.428 8.35-.537-.216z" fill="#000"/><path fill-rule="evenodd" clip-rule="evenodd" d="M17.83 9.38h-.005l-11.858.472a.117.117 0 00-.095.051.119.119 0 00-.02.105l.252.871a.122.122 0 00.118.089h11.132a.123.123 0 00.116-.081l.477-1.344a.12.12 0 00-.017-.113.122.122 0 00-.1-.05zm-.476 2.185H6.222a.723.723 0 01-.695-.522l-.25-.871a.718.718 0 01.666-.916l11.859-.472a.718.718 0 01.71.959l-.477 1.342a.723.723 0 01-.681.48zm-.817 3.52c.06.002.11-.036.123-.095l.289-1.221a.12.12 0 00-.024-.104.12.12 0 00-.097-.047l-9.674.069a.123.123 0 00-.119.156l.249.863a.12.12 0 00.114.088l9.139.291zm.004.597h-.023l-9.139-.29a.72.72 0 01-.672-.522l-.249-.863a.719.719 0 01.69-.917l9.675-.068c.25-.03.432.098.57.27a.71.71 0 01.14.614l-.288 1.221a.725.725 0 01-.704.555zM5.254 6.136s.586-.708 1.51-1.729a71.132 71.132 0 011.624-1.71c.308-.304.63-.615.972-.923.172-.154.344-.308.536-.458l.142-.113.036-.028.044-.032.07-.05c.11-.073.24-.153.382-.208.143-.058.326-.109.541-.082a.964.964 0 01.523.251c.06.053.108.104.15.15l.03.033.034.04.013.017c.015.02.033.04.07.103.117.203.14.382.135.559-.048.686-.52 1.072-.787 1.361a36.669 36.669 0 01-1.691 1.646c-.503.473-.944.843-1.248 1.106-.306.262-.488.404-.488.404l-.328-.35L9.1 4.471l1.6-1.697c.132-.147.315-.331.39-.446.094-.134.156-.297.155-.403.004-.047-.02-.098-.015-.091.012.012-.006-.013-.026-.038l-.013-.016-.007-.008a.319.319 0 00.016.019l-.003-.003-.026-.03a1.547 1.547 0 00-.09-.094c-.053-.047-.068-.05-.08-.052a.279.279 0 00-.13.026c-.072.027-.14.066-.221.118l-.071.048a1.108 1.108 0 00-.026.018l-.032.025-.127.097c-.17.13-.34.276-.505.419-.333.29-.653.591-.961.883a68.587 68.587 0 00-1.684 1.618L5.608 6.46l-.354-.324zm13.108.469l-1.636-1.186a76.65 76.65 0 00-1.684-1.197l-.957-.66-.497-.329-.252-.16c-.074-.047-.198-.125-.195-.112a.317.317 0 00-.27.028c-.04.013-.228.227-.274.296a.304.304 0 00-.015.26.373.373 0 00.138.173l.114.081c.625.431 1.198.85 1.69 1.208a60.21 60.21 0 011.622 1.214l-.272.394s-.695-.418-1.713-1.083c-.51-.33-1.105-.716-1.731-1.146l-.12-.08a1.092 1.092 0 01-.402-.493 1.027 1.027 0 01.116-.993l.046-.06.11-.13a1.17 1.17 0 01.315-.274c.267-.159.607-.188.901-.077.196.08.234.128.332.185l.258.169.504.342c.33.228.652.457.96.683.612.457 1.173.895 1.652 1.273.947.768 1.56 1.3 1.56 1.3l-.3.374z" fill="#000"/></svg>