<svg width="25" height="27" fill="none" xmlns="http://www.w3.org/2000/svg"><path fill-rule="evenodd" clip-rule="evenodd" d="M13.877 11.396s1.1.912.925 2.128c-.164 1.14-1.584 2.038-3.04 2.333-1.456.294-3.666-.028-3.992-.131-.326-.104-.84.308-.882.793-.042.485 3.002 8.684 3.002 8.684s2.835.636 6.091-.967c3.489-1.716 3.98-3.635 3.98-3.635l-3.122-8.858-.96-.6-1.12-.22-.883.473z" fill="#B0A7D2"/><path fill-rule="evenodd" clip-rule="evenodd" d="M8.411 18.36l-.262-.58s3.269-.234 4.79-.777c1.725-.614 3.401-2.107 3.401-2.107s1.42 4.161 1.496 4.453c.076.292-1.43 1.299-1.902 1.588-.475.29-2.348 1.432-3.907 1.507-1.558.077-2.284.084-2.284.084L8.41 18.361z" fill="#fff"/><mask id="a" maskUnits="userSpaceOnUse" x="4" y="0" width="10" height="16"><path fill-rule="evenodd" clip-rule="evenodd" d="M13.989.025H4.167v15.23h9.822V.026z" fill="#fff"/></mask><g mask="url(#a)"><path fill-rule="evenodd" clip-rule="evenodd" d="M13.557 12.649L8.79.747l.308.27a4.763 4.763 0 00-.573-.1A5.52 5.52 0 007.93.88c-.393 0-.787.038-1.143.153l-.133.045c-.028.008-.093.037-.138.055-.104.042-.181.082-.27.122-.177.09-.352.188-.521.298a5.607 5.607 0 00-.928.761l.069-.332L8.63 14.685l-.161-.154a10.828 10.828 0 001.451.236c.245.019.489.036.73.03.12.003.239-.01.359-.015.116-.016.236-.022.348-.05.116-.018.221-.055.329-.089.104-.043.234-.093.34-.142a6.3 6.3 0 00.645-.333c.207-.125.407-.263.593-.416.093-.077.392-.329.437-.52l.09.107a.395.395 0 01.008.499c-.094.12-.2.221-.259.27a5.416 5.416 0 01-.647.454 6.747 6.747 0 01-.698.361c-.122.056-.229.096-.356.149-.133.043-.265.086-.398.108-.132.031-.263.04-.395.057-.13.006-.262.02-.391.017a7.427 7.427 0 01-.773-.032 11.152 11.152 0 01-1.516-.245l-.12-.028-.04-.126L4.224 2.188l-.058-.183.126-.149.001-.002a5.285 5.285 0 01.496-.497A5.988 5.988 0 015.907.566c.103-.053.217-.115.31-.156.053-.024.086-.042.157-.07l.168-.065A4.479 4.479 0 017.918.028a6.246 6.246 0 011.024.05c.116.016.221.032.35.058h.001l.224.053.085.218 4.314 11.124c.1.262.11.435-.055.79-.136.292-.304.328-.304.328z" fill="#181716"/></g><path fill-rule="evenodd" clip-rule="evenodd" d="M10.442 18.713a19.955 19.955 0 001.536-.235c.175-.036.348-.073.51-.115a6.524 6.524 0 001.016-.346 10.317 10.317 0 00.946-.475 13.667 13.667 0 001.321-.858l.06-.045s.964 2.546 1.048 2.817c.063.209.055.38.055.38.021.025.118.013.26-.122.131-.125.23-.38.16-.592L16.3 15.968l-.148-.441-.375.286v.001c-.125.096-.264.197-.4.291l-.414.282c-.278.183-.562.357-.85.518a9.727 9.727 0 01-.883.437c-.15.066-.3.124-.45.177-.153.052-.302.1-.458.138a10.478 10.478 0 01-.97.202c-.327.058-.659.1-.99.142-.331.041-.665.063-.999.093-.333.03-.67.05-1 .062l-.465.018 1.725 4.674H9.8a19.49 19.49 0 001.838-.09c.307-.028.612-.065.92-.113.307-.047.612-.109.919-.185.152-.043.305-.083.456-.138.153-.053.304-.111.444-.177.294-.136.566-.286.836-.449.404-.244.718-.43 1.173-.8a.481.481 0 00.1-.653l-.023-.028c-.404.429-.957.771-1.478 1.07-.26.15-.53.288-.793.403a4.151 4.151 0 01-.411.153c-.137.046-.28.08-.423.116a9.51 9.51 0 01-.875.155c-.296.04-.595.068-.895.088a19.579 19.579 0 01-1.595.047l-1.151-3.402a24.134 24.134 0 001.6-.132z" fill="#181716"/><path fill-rule="evenodd" clip-rule="evenodd" d="M7.487 14.322s-.15.013-.372.154a3.756 3.756 0 00-.87.758c-.074.09-.156.206-.212.3l-.03.052c-.008.016-.008.021-.014.032a1.112 1.112 0 00-.077.235.967.967 0 00-.007.361c.015.098.086.31.138.494.228.754.47 1.609.738 2.54l.872 3.005.487 1.636.256.841c.088.274.183.583.272.815l.016.043c-.011-.019.03.058-.023-.04l.008.013.015.023.016.024c.004.004-.001-.009-.002-.011a.06.06 0 00-.02-.024s.025.015.036.024l.066.034c.1.045.225.085.355.118.262.066.549.107.837.137.58.06 1.181.066 1.784.042 1.203-.058 2.438-.239 3.566-.66.072-.024.14-.055.209-.083l.098-.04.107-.05c.141-.068.292-.131.425-.201.27-.134.541-.281.808-.435.53-.31 1.041-.655 1.516-1.034.468-.378.927-.793 1.241-1.242.04-.056.066-.11.1-.164.017-.028.021-.05.033-.075.006-.02.028-.054.024-.064a.12.12 0 01.01-.041c.002-.01.003.07.002.029l-.002-.015-.004-.028-.008-.058c-.007-.084-.027-.135-.042-.198a9.65 9.65 0 00-.11-.407c-.038-.143-.084-.288-.127-.432-.35-1.15-.728-2.259-1.084-3.308l-1.015-2.958-.455-1.313-.213-.608c-.074-.204-.123-.382-.206-.511a1.197 1.197 0 00-.493-.454c-.065-.033-.123-.052-.208-.081a3.885 3.885 0 00-.836-.162 4.828 4.828 0 00-1.533.128l-.11.025-.108-.426.115-.031a5.26 5.26 0 011.668-.191c.29.014.608.06.956.162.072.024.176.055.267.1.093.042.184.094.272.156a1.715 1.715 0 01.539.638l.04.087.028.071.111.296.224.606c.154.414.314.85.481 1.305.334.91.694 1.896 1.062 2.945.367 1.05.756 2.155 1.124 3.32.046.146.093.29.136.442.043.15.088.293.131.48.02.088.046.184.052.256l.008.057.005.029.001.014c0-.03.005.059.003.059a2.45 2.45 0 01-.03.188c-.011.068-.034.101-.052.153-.02.046-.037.1-.06.139-.046.078-.089.163-.138.234-.394.57-.873.997-1.37 1.411-.501.41-1.034.777-1.59 1.11-.278.164-.561.322-.855.472-.147.078-.287.138-.431.209l-.107.05-.12.053c-.076.031-.152.067-.23.095-1.237.475-2.523.671-3.789.747-.634.033-1.264.033-1.894-.024a6.846 6.846 0 01-.95-.147 2.96 2.96 0 01-.495-.162l-.134-.067c-.051-.034-.09-.056-.15-.102a1.15 1.15 0 01-.144-.151l-.015-.024-.016-.024-.008-.01c-.059-.106-.02-.04-.035-.067l-.026-.063c-.13-.331-.21-.597-.308-.89l-.269-.846-.504-1.636-.904-3.002c-.277-.93-.532-1.781-.742-2.541-.05-.198-.11-.345-.157-.611a1.896 1.896 0 01.125-1.014 1.8 1.8 0 01.071-.146l.042-.073.031-.05a3.35 3.35 0 01.316-.409c.467-.507 1.341-1.055 1.861-.342z" fill="#181716"/></svg>