<svg width="23" height="13" fill="none" xmlns="http://www.w3.org/2000/svg"><path fill-rule="evenodd" clip-rule="evenodd" d="M0 .894S5.333.465 10.667.23C12 .174 13.333.013 14.583 0c1.25.002 2.25.099 3.25.23 2 .238 3.167.664 3.167.664v.19s-1.167.426-3.167.664c-1 .131-2.083.229-3.333.23-1.25-.013-2.542-.174-3.875-.23A330.7 330.7 0 010 1.084v-.19zm1 4.893s1.333-.318 3.333-.543c2-.252 4.667-.403 7.334-.406 2.666.001 5.333.15 7.333.404 2 .226 3.333.545 3.333.545S21 6.106 19 6.332c-2 .254-4.667.403-7.333.404C9 6.733 6.333 6.582 4.333 6.33 2.333 6.105 1 5.787 1 5.787z" fill="#000"/><mask id="a" maskUnits="userSpaceOnUse" x="0" y="10" width="21" height="3"><path fill-rule="evenodd" clip-rule="evenodd" d="M21 12.574H0v-1.978h21v1.978z" fill="#fff"/></mask><g mask="url(#a)"><path fill-rule="evenodd" clip-rule="evenodd" d="M21 11.68s-5.167.429-10.5.664c-1.333.056-2.583.217-3.833.23a26.134 26.134 0 01-3.375-.23C1.292 12.106 0 11.68 0 11.68v-.19s1.333-.426 3.333-.664c1-.131 2.167-.23 3.417-.23 1.25.013 2.417.174 3.75.23 5.333.235 10.5.664 10.5.664v.19z" fill="#000"/></g></svg>