<svg width="26" height="29" fill="none" xmlns="http://www.w3.org/2000/svg"><path fill-rule="evenodd" clip-rule="evenodd" d="M10.69 18.179v7.377s-1.337-1.474-3.398-2.02c-2.06-.545-3.398-.686-3.398-.686l.009-1.743.556.287.165-.354v-.874l-.06-.95-.343-.918-.307-.341.057-3.196s2.618.403 4.324 1.424c1.705 1.02 2.395 1.994 2.395 1.994zm2.058 1.896s.019-.78.816-1.478c.798-.698 3.918-2.876 6.419-3.444 2.5-.567 1.974-.391 1.974-.391v3.22s-1.73.911-1.804 2.003c-.074 1.09-.007 1.386.179 1.76.185.374.758.459.758.459v.773s-2.966 1.063-4.442 1.94c-2.081 1.237-3.278 2.818-3.65 3.291-.37.473-.25-8.133-.25-8.133z" fill="#B4E0F1"/><path fill-rule="evenodd" clip-rule="evenodd" d="M22.457 20.027c-.111.249-.325.498-.573.698a2.164 2.164 0 01-.42.263c-.07.032-.153.064-.204.077a.374.374 0 01-.112.02c-.004 0-.011-.002-.017.005.006-.001-.015.011-.04-.04a.564.564 0 01-.06-.187 2.289 2.289 0 01-.013-.508 3.237 3.237 0 01.156-.798c.029-.078.06-.16.1-.251l-.002.007c.156-.332.308-.626.536-.838.056-.054.118-.102.179-.147l.07-.045a.85.85 0 01.306.124c.05.031.09.07.105.095 0 0-.003-.001-.002-.003l.03.061c-.014-.02.008.037.01.056.031.12.043.28.042.441a7.862 7.862 0 01-.09.97zm-.306-1.803a.417.417 0 01-.037.024s-.003 0-.005.002l.034-.02.008-.006zm-4.872-2.526c-.191.089-.405.19-.599.296-.786.41-1.55.867-2.274 1.393-.359.266-.71.547-1.042.856a8.328 8.328 0 00-.48.486l-.096.114a7.802 7.802 0 00-.378-.44 10.1 10.1 0 00-1.002-.905 13.057 13.057 0 00-1.095-.772c-.375-.24-.762-.461-1.155-.668a10.24 10.24 0 00-.598-.299c-.195-.085-.4-.174-.598-.248l1.31-.692c.408-.215.91-.15 1.245.162l1.7 1.581a1.044 1.044 0 001.423 0l1.984-1.845a.465.465 0 01.57-.049l1.388.902-.303.128zm-4.464 12.24h-.003c.009.006.015.011.003 0zM4.69 19.312c.04.09.072.17.1.245.03.086.05.174.072.263.043.177.064.358.077.536.01.177.01.354-.018.507a.538.538 0 01-.06.183c-.026.05-.045.033-.034.032-.005-.008-.012-.007-.012-.007a.335.335 0 01-.11-.021 1.567 1.567 0 01-.2-.078 2.193 2.193 0 01-.414-.264c-.243-.2-.454-.445-.563-.69a6.441 6.441 0 01-.055-.46 5.254 5.254 0 01-.035-.499c-.002-.16.01-.32.038-.437.001-.017.024-.073.007-.051l.029-.06a.356.356 0 01.095-.09.797.797 0 01.171-.086.826.826 0 01.127-.039l.064.041c.061.043.124.091.18.144.228.209.383.5.54.831zm-.84-1.05l-.007-.003a.31.31 0 01-.038-.025l.008.005.038.023zm4.098-5.904a9.786 9.786 0 00.185-1.708c.016-.567.003-1.132-.026-1.692L8.014 7.3c-.02-.545-.018-1.065.085-1.584a5.84 5.84 0 01.443-1.505c.207-.479.512-.906.874-1.273.728-.739 1.751-1.164 2.816-1.297l.395-.04.424-.015.388.014.393.047c.52.084 1.02.274 1.47.547.45.273.852.628 1.193 1.034.344.413.61.859.828 1.36.207.477.34 1.009.444 1.54.082.434.14.876.182 1.315a23.44 23.44 0 01-1.99-.39 21.948 21.948 0 01-1.125-.31c-.188-.052-.369-.12-.553-.181a7.96 7.96 0 01-.544-.199 12.42 12.42 0 01-1.055-.462c-.173-.081-.332-.184-.499-.274a3.928 3.928 0 01-.474-.305c-.152-.108-.312-.208-.44-.338-.128-.126-.291-.24-.39-.373-.102-.137-.217-.249-.318-.398l-.273-.516-.598.31.283.51c.06.089.133.179.206.268a4.475 4.475 0 01-.718.994 3.72 3.72 0 01-.762.613c-.114.07-.213.12-.285.151l-.11.053.183.447.13-.055a2.63 2.63 0 00.339-.16c.273-.145.612-.38.906-.662.297-.279.547-.598.715-.85.014-.02.024-.038.037-.058.08.066.16.13.236.202.152.145.327.253.498.367.169.117.34.231.521.321.18.094.355.199.54.282.367.17.735.329 1.115.461.187.075.375.13.567.19.191.06.374.116.567.165.385.11.76.185 1.15.275.392.087.733.154 1.1.212-.074.944-.615 5.56-4.138 5.56-2.7 0-3.566-3.791-3.813-5.42l-.488.07c.217 1.429.89 4.403 2.803 5.453a8.87 8.87 0 01-.32.378l-.122.138a3.55 3.55 0 01-.423.429 1.584 1.584 0 00-1.368.053l-1.624.857c.059-.397.15-.84.227-1.254l.307-1.641zm3.785 1.245c.316.11.66.173 1.036.173.516 0 .972-.088 1.38-.238a7 7 0 00.922 1.028l-1.77 1.647a.549.549 0 01-.746 0l-1.7-1.58-.022-.018c.142-.13.25-.25.37-.387l.12-.135c.175-.197.314-.367.41-.49zm6.543 1.717l-.125.043-1.686-1.096a.953.953 0 00-1.011-.01 6.674 6.674 0 01-.849-.925c2.278-1.225 2.713-4.633 2.788-5.53.057.008.115.014.173.021l-.011.125-.036.392c-.011.144-.035.326-.04.532-.015.78.047 1.774.14 2.778.05.499.102 1.003.187 1.474.082.468.174.898.256 1.265l.214.931zm3.68 8.633c-.867.093-4.309.616-7.886 3.431l.216.377c3.984-3.136 7.507-3.344 7.544-3.346l.125-.01v-.452zm0-2.295l.25-.195c.372-.286.679-.643.904-1.05l.088-.158.016-.042c.076-.388.13-.756.12-1.16a2.508 2.508 0 00-.082-.64c-.023-.068-.033-.099-.082-.202l-.035-.059a1.523 1.523 0 00-.084-.112 1.124 1.124 0 00-.324-.249c-.111-.058-.284-.1-.399-.129-.097-.024-.373-.038-.373-.042v-2.857l-.15-.037h.002c-.889 0-1.755.184-2.618.415-.144.039-.288.034-.43.075-.041-.214-.1-.54-.17-.907a30.597 30.597 0 01-.206-1.26 17.79 17.79 0 01-.128-1.44c-.057-.984-.08-1.987-.04-2.701.009-.168.035-.327.054-.484.019-.152.036-.638.05-.747.013-.102.023-.594.03-.594 0 0 .022-.662-.075-1.22a7.328 7.328 0 00-.455-1.57 5.858 5.858 0 00-.886-1.453 5.303 5.303 0 00-1.22-1.089c-.524-.341-1.475-.672-2.1-.744L13.49.993l-.46-.017-.424.01-.45.039c-1.173.128-2.36.591-3.226 1.444A4.87 4.87 0 007.9 3.924c-.244.538-.43 1.1-.52 1.672-.121.57-.133 1.167-.12 1.729l.07 1.665a19 19 0 01-.021 2.054 9.237 9.237 0 01-.172 1.172l-.33 1.623c-.08.412-.169.795-.24 1.222a21.215 21.215 0 00-2.522-.537l-.29-.043v.282c0 .95.015 1.9.01 2.85-.073.007-.135.02-.203.035-.115.03-.225.07-.339.129a1.15 1.15 0 00-.328.251 1.253 1.253 0 00-.086.115l-.035.06c-.052.105-.06.135-.085.205-.07.234-.082.441-.089.644a5.07 5.07 0 00.022.59c.024.194.052.376.092.575l.01.046.014.034c.202.452.533.771.9 1.015.185.122.381.226.599.304.114.037.214.068.358.088a.96.96 0 00.455-.034.671.671 0 00.363-.368 1.19 1.19 0 00.087-.368 2.778 2.778 0 00-.032-.636c-.03-.202-.083-.396-.13-.59l-.079-.291a4.943 4.943 0 00-.093-.29l-.002-.006c-.121-.34-.27-.728-.552-1.055a2.098 2.098 0 00-.223-.232l-.124-.104-.004-.003c-.007-.89-.002-1.779 0-2.668.754.138 1.509.314 2.242.537.412.124.82.264 1.216.424.202.079.386.165.58.253.202.1.384.19.569.299.377.207.744.427 1.1.664.37.24.722.508 1.062.784.351.284.677.598.974.937.104.12.206.242.298.369.105.139.107.074.175.204l.017 4.485-.084 2.285-.088 1.141v.105l.033-.05c-.304-.248-.455-.275-.779-.499l-.451-.346-.573-.38a11.296 11.296 0 00-.966-.573c-.33-.175-.66-.35-1-.504a14.828 14.828 0 00-2.213-.828c-.379-.112-1.018-.201-1.407-.278-.316-.058-1.21-.103-1.21-.132v.232s.74.142 1.304.274c.37.087.77.227 1.133.34.365.107.738.265 1.093.401.409.16.82.355 1.208.546.345.17.682.353 1.012.55.275.164.555.326.817.511l.474.319.456.342c.223.168.441.342.654.522l.447.376.073.06s.048.035.081.05a.523.523 0 00.465-.003.533.533 0 00.27-.287.958.958 0 00.046-.165v-.072l-.02-.285-.006-1.141.009-2.285.017-4.568v-.082l-.033-.057c-.003-.005-.01-.01-.012-.017.07-.098.146-.2.228-.294a7.35 7.35 0 01.42-.452c.296-.292.619-.565.95-.826a17.27 17.27 0 012.715-1.696c.194-.088.375-.171.576-.25.394-.16.984-.291 1.397-.414.733-.218 1.559-.49 2.425-.547v2.944c-.08.074-.329.16-.397.242-.283.325-.68 1.087-.71 1.19l-.153.293c-.044.195-.13.389-.16.59-.028.203-.066.41-.046.635.011.113.02.232.079.364a.652.652 0 00.352.36.848.848 0 00.268.045c.044 0 .28 0 .36-.014.087-.012.407-.03.407-.05v.02z" fill="#000"/><path fill-rule="evenodd" clip-rule="evenodd" d="M21.668 18.175h.377v-3.487l-.377.037v3.45z" fill="#000"/><mask id="a" maskUnits="userSpaceOnUse" x="2" y="0" width="22" height="29"><path fill-rule="evenodd" clip-rule="evenodd" d="M2.6 28.533h20.736V.974H2.6v27.56z" fill="#fff"/></mask><g mask="url(#a)" fill-rule="evenodd" clip-rule="evenodd" fill="#000"><path d="M3.767 24.13h.507v-3.024h-.507v3.024zm17.683 0h.507v-3.024h-.507v3.024z"/></g></svg>