<svg width="25" height="27" fill="none" xmlns="http://www.w3.org/2000/svg"><path fill-rule="evenodd" clip-rule="evenodd" d="M8.748 16.196c-.967-1.305-1.15-.948-1.15-.948s-3.54 1.194-5.267-.989C.605 12.076-.317 8.974 1.086 7.054c1.402-1.92 3.083-2.58 4.518-2.706 1.435-.126 5.436.812 7.547.834 4.209.042 7.39-.224 7.39-.224l.785 4.185s-4.657 1.252-6.462 2.652c-1.805 1.4-2.838 2.707-2.563 4.136 0 0-.681 1.418 1.357 4.262 1.443 2.012 1.564 3.23 1.008 3.561-.555.332-1.625.718-2.755-1.03-1.13-1.75-3.163-6.528-3.163-6.528z" fill="#F6CEA9"/><path fill-rule="evenodd" clip-rule="evenodd" d="M22.9 2.078l.278.634c.174.416.416 1.034.665 1.839.248.806.472 1.806.637 2.968.015.164.048.248.048.481a.653.653 0 01-.343.548c-.363.127-.62.186-.947.286l-1.967.573c-1.38.368-2.8.903-4.26 1.627-1.471.71-2.916 1.581-4.465 2.521A22.734 22.734 0 017.4 15.692c-.433.123-.938.285-1.453.313-.512.027-1.036.002-1.533-.137A5.563 5.563 0 011.8 14.321c-.71-.716-1.233-1.678-1.52-2.604-.307-.987-.346-2.008-.19-3.001.185-.983.583-1.935 1.233-2.692a4.607 4.607 0 011.11-.976c.201-.137.429-.25.664-.353.24-.107.409-.15.667-.234 1.717-.504 3.466-.838 5.119-.943.827-.064 1.646-.052 2.402-.054a43.384 43.384 0 002.212-.069c1.416-.08 2.707-.232 3.832-.45 1.113-.212 2.09-.53 2.894-.735l1.866-.51c.103-.04.315-.05.42.003a.671.671 0 01.258.173.804.804 0 01.13.195l.004.007zm-.378.183l-.02-.04c-.006-.006-.02-.03-.044-.054-.06-.046-.103-.107-.253-.051l-1.858.539c-.806.22-1.753.547-2.917.79-1.15.243-2.463.417-3.897.522-.717.053-1.465.089-2.24.106-.783.015-1.557.016-2.361.09-1.615.132-3.27.473-4.971 1.001C2.35 5.591 1.154 7.124.9 8.851a5.841 5.841 0 00.202 2.595c.146.478.3.828.522 1.228.223.381.478.747.788 1.061a4.738 4.738 0 002.204 1.363c.416.125.851.15 1.279.137.43-.016.833-.137 1.302-.262a22.002 22.002 0 005.032-1.986c1.518-.885 3.05-1.77 4.54-2.456a23.36 23.36 0 014.373-1.583l1.977-.538.88-.242c.055-.024.107-.104.11-.195.004-.066-.033-.272-.047-.397a19.886 19.886 0 00-.644-2.898 17.607 17.607 0 00-.631-1.804l-.269-.62.004.007z" fill="#000"/><path fill-rule="evenodd" clip-rule="evenodd" d="M19.997 2.483s.45 1.229.78 2.49a25.52 25.52 0 01.546 2.548l-.4.067s-.238-1.256-.622-2.48a31.013 31.013 0 00-.847-2.412l.543-.213zM5.19 9.511l4.173-.93.099.35-4.045 1.383-.226-.803zm-.492-1.539s.247-.098.646-.23c.391-.132.92-.283 1.454-.4 1.068-.243 2.15-.325 2.15-.325l.05.361s-1.045.197-2.04.541c-.498.168-.983.366-1.338.53-.348.161-.588.287-.588.287l-.334-.764zm.992 3.085l.655-.055c.389-.04.907-.116 1.42-.228 1.028-.214 2.007-.624 2.007-.624l.157.329s-.957.53-2.004.872a13.92 13.92 0 01-1.459.402l-.672.13-.104-.826zM2.974 5.199l-.143.478a5.82 5.82 0 00-.146.548c-.045.211-.114.446-.15.712a9.826 9.826 0 00-.152 1.82c.018.333.02.68.082 1.025.04.35.129.694.21 1.04.11.34.211.68.358 1 .125.328.303.627.46.922.342.575.714 1.08 1.072 1.482.167.21.349.378.499.537.149.16.29.288.407.393l.366.332-.18.212-.376-.337a6.34 6.34 0 01-.419-.4c-.154-.162-.34-.333-.515-.547a10.14 10.14 0 01-1.113-1.52c-.164-.305-.35-.613-.482-.953-.154-.33-.262-.684-.378-1.036-.087-.36-.181-.717-.224-1.08-.067-.358-.071-.718-.092-1.064a10.15 10.15 0 01.146-1.883c.035-.274.105-.52.15-.741.046-.223.1-.408.146-.56l.141-.479.333.099zm11.22 7.126s-.318.345-.779 1.025c-.226.34-.492.764-.706 1.28-.2.498-.395 1.183-.041 1.675.423.542.987 1.063 1.582 1.627.593.567 1.239 1.154 1.795 1.898.274.362.524.816.642 1.28.123.468.201.929.266 1.402.064.47.11.946.146 1.423.012.254.044.445.033.75a1.124 1.124 0 01-.454.78 1.257 1.257 0 01-.618.246l-.18.019a3.09 3.09 0 01-.782-.043 2.814 2.814 0 01-1.389-.675c-.689-.735-1.222-1.444-1.776-2.17-1.076-1.45-1.974-2.877-2.544-4.247a6.964 6.964 0 01-.32-1.018c-.07-.32-.153-.45-.354-.64-.367-.343-.816-.558-1.176-.716a8.224 8.224 0 00-1.185-.396l.155-.658.35.098c.22.07.544.175.943.35.396.181.883.405 1.365.861.24.194.474.625.52.951.07.318.156.618.282.94.51 1.28 1.38 2.712 2.42 4.137.519.7 1.1 1.47 1.684 2.11.305.285.701.476 1.122.558.406.068.91.09 1.18-.116.143-.1.24-.267.257-.414.01-.17-.016-.453-.026-.673a24.59 24.59 0 00-.128-1.395c-.123-.928-.252-1.806-.797-2.479-.508-.695-1.14-1.287-1.723-1.856-.586-.569-1.161-1.106-1.612-1.698-.253-.346-.294-.77-.252-1.116.04-.354.15-.661.264-.94.237-.555.518-.99.755-1.341.484-.696.817-1.053.817-1.053l.264.234z" fill="#000"/></svg>