<svg width="25" height="26" fill="none" xmlns="http://www.w3.org/2000/svg"><path fill-rule="evenodd" clip-rule="evenodd" d="M6.054 3.087L2.986 7.728l9.229 5.385 2.284-8.229-3.957-2.936-4.488 1.14z" fill="#F18B98"/><mask id="a" maskUnits="userSpaceOnUse" x="2" y="0" width="21" height="26"><path fill-rule="evenodd" clip-rule="evenodd" d="M22.757 25.925V.812H2.5v25.113h20.257z" fill="#fff"/></mask><g mask="url(#a)"><path fill-rule="evenodd" clip-rule="evenodd" d="M3.307 7.646l8.865 5.39 2.734-4.845.029-.072.632-1.099 1.44-2.551-12.01 2.884a.8.8 0 01.53-.458L16.686 3.89 12.44 2.06a.7.7 0 00-.438-.039L6.522 3.32 3.308 7.646zm1.741 11.952c.416 1.259 1.241 2.267 1.861 2.892a8.341 8.341 0 002.755 1.822 8.761 8.761 0 003.934.653 9.742 9.742 0 001.673-.265 9.17 9.17 0 003.666-1.848c1.705-1.433 2.794-3.556 2.913-5.679.098-1.756-.374-3.484-1.33-4.868a8.444 8.444 0 00-2.378-2.316c-.652-.422-1.679-.972-2.866-1.202a.502.502 0 00-.21-.018c-.07.017-.098.067-.134.13l-2.685 4.402c-.189-.091-.825-.446-1.897-1.059l-1.497-.845-.912-.523a2.639 2.639 0 01-.22-.115c-.076-.044-.128-.073-.195-.056-.05.012-.088.045-.158.102a8.913 8.913 0 00-.958.947 7.269 7.269 0 00-1.39 2.344 7.68 7.68 0 00-.477 2.737c.012.66.111 1.359.313 2.197l.161-.038-.06.091-.098-.046.19.56zm10.477 6.032a9.92 9.92 0 01-2.332.294c-3.598.024-6.928-1.908-8.483-4.92a8.744 8.744 0 01-.85-5.512c.348-1.965 1.433-3.764 3.05-5.063l.093-.074L2.5 7.818l3.446-5.25c.016-.024.046-.04.102-.054l.124-.027L12.33.814c.034-.008.072.014.13.05l5.536 3.02-2.644 4.33.115.023a9.42 9.42 0 012.997 1.14c1.833 1.087 3.221 2.762 3.811 4.594.596 1.85.64 3.67.13 5.262-.678 2.11-2.048 3.917-3.863 5.088a9.999 9.999 0 01-3.016 1.309h-.001z" fill="#181716"/></g><path fill-rule="evenodd" clip-rule="evenodd" d="M16.428 10.647l.346.178a6.985 6.985 0 012.195 1.878 6.526 6.526 0 011.039 2.021l.092.32.064.298c.047.197.087.407.105.644.03.23.051.463.044.694.006.232 0 .468-.031.706a6.894 6.894 0 01-.934 2.845 7.193 7.193 0 01-2.27 2.31c-.933.607-2.082.977-3.197 1.068-2.314.219-4.623-.795-5.99-2.399a6.816 6.816 0 01-1.432-2.63c-.087-.255-.105-.45-.16-.673-.029-.233-.077-.468-.082-.69a6.44 6.44 0 01.7-3.447c.307-.602.66-1.078.98-1.442a7.36 7.36 0 011.133-1.021l.3.383-.286.237a6.864 6.864 0 00-.729.741 6.338 6.338 0 00-1.41 3.33 6.004 6.004 0 00-.013 1.17c.007.204.053.395.077.599.053.204.089.457.158.63a6.155 6.155 0 001.317 2.347c.625.71 1.45 1.29 2.382 1.653.924.375 1.971.53 2.965.425 1.034-.11 2.005-.404 2.854-.94a6.415 6.415 0 002.039-2.034c.485-.804.77-1.684.859-2.534.052-.422.047-.852.004-1.234-.023-.365-.135-.848-.224-1.156a6.39 6.39 0 00-3.159-3.807l.264-.47z" fill="#181716"/></svg>