<svg width="30" height="26" fill="none" xmlns="http://www.w3.org/2000/svg"><path fill-rule="evenodd" clip-rule="evenodd" d="M14.254 10.052c.573-1.365 1.32-2.64 2.294-3.783.502-.553 1.048-1.09 1.717-1.487.653-.405 1.41-.72 2.216-.76.792-.094 1.63.125 2.292.382.77.33 1.413.784 1.952 1.366.522.585.96 1.25 1.232 1.98.308.717.45 1.486.53 2.253.042.769.024 1.55-.162 2.303-.151.759-.44 1.487-.806 2.17a8.266 8.266 0 01-1.413 1.82c-.5.515-1.085 1.103-1.638 1.568-2.266 1.876-4.728 2.872-7.313 4.872h-.002l-.448.158-.24-.502a10.98 10.98 0 00-.957-1.525c-.36-.485-.76-.95-1.186-1.376a11.952 11.952 0 00-1.351-1.195c-.473-.371-.99-.68-1.514-.966-.555-.298-1.13-.607-1.678-.985A10.835 10.835 0 016.23 15.11c-.956-.92-1.758-2.104-2.062-3.457a6.518 6.518 0 01-.145-2.038c.013-.168.042-.335.062-.502.016-.096.013-.138.044-.28l.056-.228c.056-.293.18-.634.312-.971.284-.63.62-1.223 1.085-1.728A5.29 5.29 0 017.18 4.629c.598-.352 1.297-.49 1.978-.57.688-.01 1.38.064 2.009.308.318.113.63.235.91.413.292.16.582.32.833.53.544.372.993.839 1.459 1.285l-.403.399c-.468-.397-.917-.817-1.436-1.128-.243-.183-.514-.31-.782-.438-.261-.15-.543-.236-.823-.321-.555-.194-1.136-.224-1.702-.201-.556.096-1.118.217-1.6.532a4.618 4.618 0 00-1.3 1.102c-.384.428-.66.955-.881 1.47-.09.254-.188.5-.246.829l-.051.23-.021.188-.045.435c-.035.58.02 1.154.146 1.709.25 1.115.914 2.108 1.762 2.924.868.829 1.86 1.455 2.976 2.033.58.315 1.149.653 1.668 1.059.525.395 1.023.827 1.473 1.304.452.474.87.978 1.249 1.512.38.538.718 1.092 1.02 1.719l-.687-.216h.002c1.235-1 2.457-1.466 3.638-2.26a37.809 37.809 0 003.435-2.528 21.775 21.775 0 001.557-1.424 7.134 7.134 0 001.232-1.583c.31-.586.56-1.211.689-1.868.165-.65.169-1.327.157-1.994-.056-.663-.161-1.333-.412-1.948-.216-.631-.576-1.194-.996-1.693a4.802 4.802 0 00-1.53-1.141c-.665-.271-1.264-.436-1.914-.38-.641.012-1.267.254-1.84.589-.585.323-1.086.806-1.57 1.295-.944 1.01-1.73 2.22-2.327 3.486l-.553-.235z" fill="#181716"/></svg>