<svg width="25" height="22" fill="none" xmlns="http://www.w3.org/2000/svg"><path fill-rule="evenodd" clip-rule="evenodd" d="M9.624 6.085c-.007 0-.014 0-.021-.002l.022-.009-.001.01zm7.48-1.17c-.544-.326-1.32-.558-1.952-.471-1.275.177-1.78 1.814-2.492 2.993-.038-.06.161-.331.104-.365.073-.15-.517-.563-.668-.725-.24-.26-.497-.535-.769-.805-.028-.158-.122-.298-.293-.344a5.429 5.429 0 01-.094-.026c-.737-.676-1.574-1.255-2.505-1.37-.865-.109-1.553.133-2.127.59-.11-.068-.25-.085-.41.005a1.912 1.912 0 00-.688.641 2.503 2.503 0 00-.674.936c-.174.432-.191.867-.187 1.3a6.329 6.329 0 00-.152 1.316c-.237.136-.367.438-.122.71 2.082 2.329 5.205 3.576 6.86 6.322.576.957.629 3.157 1.605 2.625.625-.339 1.852-1.701 2.335-2.212.42-.446 4.519-3.853 5.069-5.628 1.049-3.387-2.195-5.104-2.84-5.491z" fill="#F08B98"/><path fill-rule="evenodd" clip-rule="evenodd" d="M11.878 8.377a11.978 11.978 0 011.912-3.153c.418-.46.873-.908 1.43-1.239.545-.338 1.176-.6 1.847-.633.66-.079 1.359.104 1.91.318a4.716 4.716 0 011.627 1.138c.435.488.8 1.043 1.027 1.65.256.598.375 1.239.441 1.878.035.64.02 1.291-.135 1.919a6.578 6.578 0 01-.671 1.81 6.886 6.886 0 01-1.178 1.516c-.416.428-.904.918-1.365 1.306-1.888 1.563-3.94 2.393-6.094 4.06h-.002l-.373.131-.2-.418a9.164 9.164 0 00-.797-1.27c-.3-.405-.634-.793-.989-1.148a9.96 9.96 0 00-1.126-.995 9.144 9.144 0 00-1.261-.805c-.463-.249-.941-.506-1.399-.821a9.03 9.03 0 01-1.29-1.03c-.796-.765-1.465-1.753-1.718-2.88a5.431 5.431 0 01-.12-1.699c.01-.14.034-.279.05-.418.014-.08.012-.115.037-.232l.047-.191c.047-.244.151-.529.26-.81.237-.524.517-1.019.904-1.44.369-.432.82-.8 1.331-1.064.498-.293 1.081-.408 1.648-.475.574-.008 1.15.054 1.675.257.265.094.525.196.759.344.242.134.484.267.693.442.454.31.828.7 1.216 1.07l-.336.333c-.39-.33-.764-.68-1.197-.94-.202-.152-.428-.258-.651-.365a3.27 3.27 0 00-.686-.267c-.463-.162-.947-.187-1.418-.168-.464.08-.932.181-1.334.444-.41.234-.781.545-1.083.918-.32.357-.55.796-.734 1.225-.075.212-.157.417-.205.69l-.043.192-.017.157-.038.363a5.06 5.06 0 00.122 1.424c.21.929.762 1.757 1.468 2.437.724.69 1.551 1.212 2.48 1.694.484.262.958.544 1.39.882.438.33.853.69 1.228 1.087.377.395.726.815 1.04 1.26a9.8 9.8 0 01.851 1.432l-.573-.18h.002c1.029-.833 2.047-1.221 3.031-1.883.991-.654 1.96-1.35 2.863-2.107.457-.387.876-.754 1.297-1.186a5.95 5.95 0 001.027-1.32 5.623 5.623 0 00.574-1.556c.138-.542.141-1.106.131-1.662-.047-.552-.134-1.11-.343-1.623-.18-.526-.48-.995-.83-1.411a4.002 4.002 0 00-1.274-.95c-.555-.227-1.055-.364-1.596-.318-.534.01-1.056.212-1.533.491-.488.27-.905.672-1.309 1.08-.787.842-1.442 1.85-1.939 2.904l-.46-.195z" fill="#181716"/></svg>