<svg width="111" height="40" fill="none" xmlns="http://www.w3.org/2000/svg"><path fill-rule="evenodd" clip-rule="evenodd" d="M22.15 13.201c4.126-1.981 7.874-4.37 10.063-8.586C27.9 6.34 24.737 9.443 22.15 13.201zm7.664 5.522l-.165-.196-.165-.197c-.488.31-.992.601-1.495.893-1.117.646-2.234 1.293-3.18 2.135a95.939 95.939 0 00-7.235 7.193c-.844.928-1.766 2.432-.566 3.628 1.079 1.074 2.47.26 3.474-.481 1.658-1.225 3.34-2.495 4.711-4.02 2.296-2.555 4.02-5.493 4.621-8.955zm-6.647-9.186c.529-.438 1.042-.872 1.548-1.3 1.174-.992 2.306-1.949 3.493-2.83a13.497 13.497 0 013.327-1.826c.625-.23 1.619-.16 2.146.21.95.667.399 1.733-.154 2.309-1.408 1.467-2.904 2.849-4.399 4.23-.367.338-.733.677-1.098 1.016-.248.231-.53.425-.877.664-.182.125-.381.262-.604.424 2.174.527 3.954 1.199 4.566 3.403.04.143.908.186 1.333.066 1.14-.322 2.273-.668 3.406-1.014 1.235-.377 2.47-.753 3.713-1.1 1.794-.5 2.577.096 2.9 1.873-.347.046-.723.056-1.1.066-.835.021-1.67.043-2.176.465-1.12.933-1.983 2.192-2.835 3.433-.169.247-.337.493-.508.735-.16.23-.13.596-.098.962.014.169.028.337.024.493.153-.053.322-.092.491-.13.368-.085.737-.169.938-.4.874-1.008 1.692-2.067 2.55-3.177.324-.42.654-.847.995-1.282 1.743.858 3.355.217 4.602-1.652l.02-.029c.218-.328.523-.786.806-.8.427-.024.86.088 1.294.199.18.046.358.092.536.128a5.04 5.04 0 00-.142.432c-.095.32-.19.64-.396.851l-.427.435c-1.312 1.329-2.633 2.667-3.206 4.854a8.35 8.35 0 01.563-.214c.323-.113.583-.205.765-.378 1.786-1.7 3.537-3.438 5.285-5.177a2.22 2.22 0 00.298-.418c.14-.23.273-.45.452-.486.562-.114 1.305-.158 1.742.128.7.458.31.779-.077 1.098a3.233 3.233 0 00-.271.24c-1.407 1.445-2.543 3.054-2.808 5.204 4.079-2.104 7.452-4.859 8.878-9.642l-15.146-.913v-.016l.016-.44.846.002c.612 0 1.224.002 1.836-.002 1.164-.007 2.328-.017 3.492-.027a580.47 580.47 0 018.95-.029c.998.008 1.389-.528 1.825-1.259a299.526 299.526 0 014.645-7.562c1.092-1.711 1.286-1.701 2.993-.525l-2.293 3.174-.03.042-4.135 5.724c2.114-.132 3.69-.166 4.004 2.148a49.8 49.8 0 01-1.027-.118c-.796-.097-1.573-.192-2.35-.192-.586 0-1.49.154-1.708.545-1.2 2.163-2.322 4.37-3.528 6.745v.002c-.388.762-.784 1.541-1.194 2.342.302-.038.533-.052.71-.063.277-.017.425-.026.513-.104.573-.504 1.157-.999 1.74-1.495 1.616-1.373 3.234-2.747 4.652-4.304 1.12-1.229 2.034-1.515 3.63-.78-2.194 1.867-3.898 3.974-4.592 6.876 2.428-.656 4.59-1.726 6.4-3.57 1.213-1.234 2.473-2.474 3.898-3.431 1.456-.978 2.124-.607 3.153 1.333-3.177.209-5.053 2.1-6.461 4.574l.18.235.006.008.005.008.182.236.57-.466.003-.002c.45-.367.9-.735 1.357-1.095.19-.15.377-.312.564-.475.482-.418.965-.837 1.525-1.062.404-.163.901-.092 1.398-.022.222.032.443.064.656.074a6.27 6.27 0 00-.005.599c.01.44.02.88-.159 1.219a199.592 199.592 0 01-4.212 7.58c-2.397 4.117-4.602 8.32-6.085 12.886.006-3.783 1.585-7.084 3.151-10.358l.096-.2c1.096-2.293 2.277-4.544 3.458-6.794v-.001a441.16 441.16 0 001.55-2.97l-.162-.138-.324-.276c-.202.141-.406.28-.61.418-.467.318-.934.635-1.372.989-.263.213-.504.455-.745.697-.282.284-.565.568-.882.803-.457.34-.957.622-1.456.904-.216.123-.432.245-.645.372l-.427-1.49-.005-.015-.3-1.046a28.37 28.37 0 00-.824.541c-.677.457-1.397.942-2.179 1.28-.584.254-1.243.33-1.902.404-.293.034-.586.067-.871.116-.005-.27-.013-.54-.021-.811A29.99 29.99 0 0161 20.402a2.37 2.37 0 01.075-.44c.059-.256.125-.54.084-.912l-.716.645a651.71 651.71 0 01-2.353 2.114c-.165.152-.334.306-.528.4-.25.121-.527.287-.808.455-.682.407-1.38.824-1.719.626-1.05-.611-.67-1.702-.324-2.697.046-.135.092-.267.134-.396.051-.156.069-.323.09-.53.012-.11.025-.229.044-.363a114.7 114.7 0 00-1.287 1.017c-.996.795-1.945 1.552-2.953 2.22-.45.297-1.012.426-1.574.554-.255.058-.51.117-.754.19l-.12-.662v-.002a68.488 68.488 0 01-.283-1.63 2.895 2.895 0 01-.013-.531c.003-.116.007-.248.007-.402-.37.307-.724.61-1.07.906-.834.715-1.62 1.387-2.462 1.977-.472.33-1.493.596-1.743.35-.42-.41-.662-1.299-.551-1.906.15-.819.446-1.61.76-2.446.134-.357.271-.723.402-1.102-1.497-.169-2.555-.037-3.22 1.688-.65 1.69-1.868 3.185-3.713 3.746-.659.2-1.66.085-2.172-.317-.414-.325-.636-1.435-.406-1.958.612-1.398 1.34-2.745 2.104-4.157.294-.543.593-1.096.893-1.666-.443.177-.885.345-1.324.513-1.127.43-2.233.851-3.286 1.38-.443.224-.767.994-.864 1.561-1.124 6.558-4.417 11.65-10.095 15.057-1.162.697-2.61 1.109-3.963 1.236-2.094.197-3.194-1.35-2.667-3.394.77-2.99 2.538-5.41 4.82-7.296 1.87-1.545 3.872-2.926 5.874-4.307.972-.67 1.944-1.34 2.901-2.03.17-.121.383-.208.598-.296.587-.239 1.184-.482.908-1.443-.331-1.153-1.13-1.924-2.32-1.881-1.386.05-2.808.195-4.131.584-1.817.533-3.297 1.546-4.319 3.338-1.909 3.347-4.34 6.316-7.29 8.81-.659.558-1.39 1.1-2.18 1.403-.525.2-1.212-.028-1.79-.22l-.013-.004c6.697-4.755 10.905-11.124 13.5-18.647.49-1.425.66-3.058.568-4.57-.163-2.711-1.78-3.934-4.475-3.673-2.974.288-5.422 1.809-7.775 3.507-2.755 1.987-5.06 4.408-6.752 7.38-1.637 2.871-2.19 5.892-.997 9.165C.41 20.345-.025 19.393 0 17.416c.032-2.42.764-4.665 1.993-6.705C4.632 6.33 8.182 2.928 13 1.096a13.756 13.756 0 014.294-.88c3.621-.137 6.09 2.387 6.07 6.023-.004.712-.059 1.422-.117 2.177-.028.362-.056.734-.08 1.12zm69.154 9.36l.206.28.086.117.838-.603.033-.023 2.8-2.015-.2-.274-.1-.137c-1.676.265-2.814 1.263-3.663 2.654zm-2.866 2.164c-.392.304-.76.608-1.115.902-.808.666-1.556 1.284-2.39 1.753-.725.41-1.85.657-2.553.377-.315-.125-.415-.783-.515-1.436a8.883 8.883 0 00-.146-.798 2.753 2.753 0 01-.06-.399c-.008-.066-.015-.134-.025-.205-.37.262-.734.53-1.096.795-.89.654-1.77 1.299-2.709 1.838-.549.315-1.576.476-1.986.174-.415-.303-.644-1.401-.418-1.923.926-2.135 1.948-4.247 3.15-6.24.744-1.232 1.643-.622 2.594.023l.23.155c-2.067 1.722-3.266 3.801-4.054 6.203 2.573-.94 4.614-2.53 6.294-4.598.296-.365.568-.75.84-1.136.151-.216.304-.433.46-.646.613-.832 1.326-.847 2.055-.182.71.648.265.948-.167 1.239a2.74 2.74 0 00-.334.25c-1.648 1.545-2.788 3.359-3.343 6.085 2.83-1.187 4.852-2.679 6.2-4.942 1.047-1.76 2.216-3.354 4.081-4.313 1.479-.76 2.884-.401 3.286 1.075.14.518-.09 1.135-.316 1.742-.1.271-.2.54-.267.798l2.362-.574a1072.33 1072.33 0 016.979-1.682c.894-.213 1.797-.428 2.705-.485.602-.037 1.227.275 1.803.676-6.427.46-12.453 2.155-18.296 4.564-1.804.744-2.014 2.503-.466 3.7.458.354 1.063.601 1.636.706.648.117 1.346.089 2.006.004 3.449-.445 7.136-3.028 9.002-5.963-.046.2-.08.407-.114.614-.074.445-.147.89-.343 1.273-1.875 3.673-7.476 6.248-11.532 5.362-2.18-.477-3.02-1.598-3.438-4.786zM68.73 9.164c-.252.557-.504 1.114-.76 1.668l.437.295 1.145-1.242a266.51 266.51 0 012.844-3.06c.6-.632.425-1.138-.167-1.54A5.898 5.898 0 0172 5.12c-.464-.35-.991-.746-1.41.083-.656 1.299-1.258 2.63-1.86 3.962z" fill="#000"/></svg>