<svg width="25" height="22" fill="none" xmlns="http://www.w3.org/2000/svg"><path fill-rule="evenodd" clip-rule="evenodd" d="M17.289 7.514l-.01.216h.037c-.039-1.667-.374-3.844-1.547-4.995-1.334-1.31-2.914-1.672-3.661-1.672h-.352l-2.16.792-2.337 1.817L6.206 6.65l-.248 1.907.248.591.333 2.133-.295 2.369-.038.433 1.396-.129 1.36.063-.762-1.178-.817-2.095-.4-2.12 1.883-1.08 1.432-1.197 1.693.546 2.031-.573.938-.833 1.266 1.19 1.063.838zm-.035 1.882h-.11l-.076.817-.685 2.21-1.114 2.102s1.393-.346 1.84-.346c.446 0 .872.046.558-.794-.32-.858-.45-3.155-.413-3.989z" fill="#F6CEA9"/><path fill-rule="evenodd" clip-rule="evenodd" d="M11.475 7.348a6.311 6.311 0 001.61-.298 5.516 5.516 0 001.004-.45c.33-.18.63-.41.889-.65.032-.025.058-.055.087-.083.04.066.086.139.139.217.199.304.495.69.847 1.024.348.34.75.623 1.072.796.16.09.299.153.399.192l.154.066.182-.453-.134-.065a2.754 2.754 0 01-.343-.186 4.49 4.49 0 01-.918-.756 5.46 5.46 0 01-.93-1.361c.028-.038.056-.077.081-.114.08-.118.166-.226.217-.32.05-.095.096-.177.133-.245l.115-.214-.423-.242-.125.207-.145.238c-.055.092-.13.17-.202.267a2.154 2.154 0 01-.26.297c-.102.1-.2.213-.326.304-.237.198-.51.389-.807.532-.29.155-.607.262-.903.35a5.451 5.451 0 01-.834.16c-.495.06-.822.025-.805.027l-.049.763.079.002c.046 0 .114-.001.196-.005z" fill="#000"/><mask id="a" maskUnits="userSpaceOnUse" x="4" y="0" width="17" height="22"><path fill-rule="evenodd" clip-rule="evenodd" d="M20.049.833v20.79H4.166V.834H20.05z" fill="#fff"/></mask><g mask="url(#a)"><path fill-rule="evenodd" clip-rule="evenodd" d="M9.725 14.72c-1.764-1.67-2.296-4.7-2.429-5.735.1-.045.202-.086.302-.133a9.59 9.59 0 00.69-.36c.12-.068.208-.123.327-.204.106-.075.215-.143.318-.222a9.739 9.739 0 001.169-1.003c.353-.374.687-.753.97-1.2l-.4-.28a9.222 9.222 0 01-1.008 1.018c-.362.315-.741.61-1.142.868-.098.067-.203.125-.304.188l-.31.177c-.2.11-.42.218-.636.316-.248.112-.506.216-.763.312.045-.459.1-.92.181-1.371.12-.65.272-1.3.517-1.882a6.554 6.554 0 01.984-1.657 5.734 5.734 0 011.427-1.261 4.837 4.837 0 011.77-.652c.621-.1 1.283-.085 1.927 0 1.285.167 2.521.708 3.388 1.647.88.93 1.36 2.194 1.55 3.491.107.664.117 1.28.025 1.943-.09.66-.198 1.363-.214 2.058a9.58 9.58 0 00.134 2.097c.055.343.124.681.191 1.015.032.164.071.339.09.486a.893.893 0 01-.021.375c-.066.209-.256.316-.543.32-.274.004-.6-.1-.941-.174a4.354 4.354 0 00-1.383-.121c1.304-1.63 1.837-4.128 2.038-5.481l-.482-.072c-.296 1.995-1.337 6.633-4.593 6.633-1.186 0-2.11-.454-2.829-1.135zm-1.486.19l-.72.091c-.223.028-.472.027-.636-.037-.159-.06-.23-.163-.26-.405-.024-.23.016-.515.069-.798.052-.286.122-.579.17-.887a5.85 5.85 0 00.06-.91c0-.588-.096-1.13-.151-1.56-.06-.49-.107-.884-.137-1.146.065-.025.133-.048.198-.074.16 1.137.7 3.872 2.29 5.613l-.883.113zm11.651 5.81c-.078-.212-.134-.429-.232-.634a4.314 4.314 0 00-.312-.604c-.108-.198-.256-.376-.392-.556a4.502 4.502 0 00-.48-.48 3.91 3.91 0 00-1.153-.684c-.107-.036-.21-.074-.32-.102a2.66 2.66 0 00-.343-.07l-.175-.025-.085.165-.001.004a1.917 1.917 0 01-.323.426 3.163 3.163 0 01-.43.371c-.158.11-.323.208-.496.295-.176.082-.351.166-.539.224-.366.135-.756.209-1.146.27-.197.018-.385.045-.588.055-.2.005-.42.019-.604.015-.4-.006-.798-.03-1.19-.091a6.274 6.274 0 01-1.146-.285 4.63 4.63 0 01-1.038-.524 3.745 3.745 0 01-.331-.261c.093-.045.215-.111.36-.2a7.017 7.017 0 001.034-.773 8.456 8.456 0 001.08-1.164c.456.158.957.25 1.514.25.455 0 .872-.077 1.252-.217.113.148.288.369.508.62l.145.167c.22.256.393.458.76.74l.297-.386a3.979 3.979 0 01-.688-.671l-.147-.17c-.17-.195-.313-.371-.42-.508a3.98 3.98 0 00.75-.526c.59-.187 1.216-.146 1.843.015.322.072.651.197 1.062.207.2.002.42-.032.628-.145a.989.989 0 00.447-.535c.073-.215.08-.433.058-.634-.022-.192-.058-.35-.088-.521a24.152 24.152 0 01-.172-.996 8.495 8.495 0 01-.094-1.975c.038-.668.134-1.314.236-2.002.107-.686.1-1.446-.008-2.129a8.448 8.448 0 00-.551-2.051 6.151 6.151 0 00-1.154-1.819 5.778 5.778 0 00-1.745-1.281 7.049 7.049 0 00-2.057-.608C12.713.82 11.998.795 11.272.905c-.72.111-1.423.36-2.045.738a6.511 6.511 0 00-1.63 1.42A7.36 7.36 0 006.487 4.9c-.286.675-.448 1.36-.578 2.047-.125.69-.217 1.37-.258 2.078l-.034.591.534-.18.096 1.024c.047.462.123.96.108 1.499-.007.27-.024.546-.073.816-.051.273-.128.562-.192.864-.062.303-.126.617-.102.976.014.178.056.375.167.56.111.186.298.326.474.399.363.143.678.126.963.106l.722-.07 1.492-.144-.004-.04c.162.124.333.235.512.337l-.068.103a7.9 7.9 0 01-.74.925c-.293.317-.62.6-.88.79-.127.097-.24.17-.32.218l-.095.059c-.038-.05-.08-.1-.107-.144l-.09-.316-.164-.14h-.005c-.133 0-.236.214-.349.248-.11.034-.217.155-.322.199-.21.085-.412.232-.604.352-.192.12-.379.272-.55.42a2.832 2.832 0 00-.253.238c-.08.08-.166.16-.24.246-.148.17-.298.344-.426.531-.14.18-.25.377-.37.57-.116.193-.212.41-.318.616l-.247.585 1.026.36.174-.605c.068-.175.122-.354.202-.532.082-.176.156-.359.258-.525.09-.174.2-.333.31-.494.053-.082.12-.152.178-.23a2.52 2.52 0 01.192-.22 3.73 3.73 0 01.428-.395 3.474 3.474 0 01.74-.455c.04-.018.084-.035.125-.05a3.292 3.292 0 00.821.773 5.042 5.042 0 001.15.582c.403.146.819.242 1.237.308.418.065.84.091 1.26.098.225.002.415-.01.625-.015.207-.01.424-.04.636-.06.419-.066.838-.145 1.242-.293.204-.065.401-.157.596-.248.194-.097.38-.21.56-.333a3.78 3.78 0 00.5-.431 2.74 2.74 0 00.3-.382c.038.013.077.026.113.042.089.032.174.077.26.116a3.386 3.386 0 01.895.68c.13.134.24.286.348.436.092.163.197.315.266.49.083.166.14.345.197.523.063.175.087.367.133.547.028.187.046.377.07.564l1.041-.142c-.053-.218-.1-.437-.159-.652z" fill="#000"/></g></svg>