<svg width="26" height="29" viewBox="0 0 26 29" fill="none" xmlns="http://www.w3.org/2000/svg">
<path fill-rule="evenodd" clip-rule="evenodd" d="M10.6904 18.1787V25.5562C10.6904 25.5562 9.35318 24.0819 7.29224 23.5367C5.23131 22.9906 3.89404 22.8496 3.89404 22.8496L3.90271 21.1069L4.45911 21.394L4.62378 21.0398V20.166L4.56311 19.2165L4.22078 18.2984L3.91398 17.957L3.97118 14.7612C3.97118 14.7612 6.58938 15.1638 8.29498 16.1846C9.99971 17.2054 10.6904 18.1787 10.6904 18.1787Z" fill="#B4E0F1"/>
<path fill-rule="evenodd" clip-rule="evenodd" d="M12.7477 20.0754C12.7477 20.0754 12.7667 19.295 13.5641 18.5969C14.3623 17.8988 17.4823 15.7212 19.9826 15.1531C22.4838 14.5858 21.9569 14.7616 21.9569 14.7616V17.9828C21.9569 17.9828 20.2279 18.8932 20.1533 19.9846C20.0788 21.0759 20.1464 21.3714 20.3319 21.7451C20.5173 22.1188 21.0902 22.2037 21.0902 22.2037V22.9774C21.0902 22.9774 18.1236 24.0398 16.6485 24.9162C14.5668 26.1536 13.3699 27.7349 12.9981 28.208C12.6272 28.681 12.7477 20.0754 12.7477 20.0754Z" fill="#B4E0F1"/>
<path fill-rule="evenodd" clip-rule="evenodd" d="M22.4575 20.027C22.3457 20.2759 22.1325 20.5247 21.8837 20.7251C21.7529 20.8296 21.609 20.9187 21.4643 20.9884C21.3949 21.0198 21.3109 21.0521 21.2597 21.0648C21.2441 21.0733 21.2008 21.081 21.1479 21.0852C21.1436 21.0852 21.1367 21.0835 21.1306 21.0903C21.1367 21.0886 21.1159 21.1013 21.0907 21.0504C21.0647 21.0096 21.0448 20.9383 21.0318 20.8635C21.0058 20.709 21.0067 20.5315 21.0179 20.3548C21.0318 20.1765 21.0561 19.9947 21.1003 19.8189C21.1211 19.7298 21.1436 19.6423 21.1739 19.5574C21.2025 19.4792 21.2337 19.3977 21.2745 19.306L21.2719 19.3128C21.4279 18.9807 21.5804 18.6869 21.8083 18.4754C21.8638 18.4211 21.9262 18.3726 21.9869 18.3285L22.0571 18.2826C22.0909 18.2903 22.1429 18.3022 22.1888 18.32C22.2529 18.3438 22.3136 18.3735 22.363 18.4066C22.4124 18.438 22.4523 18.4771 22.4679 18.5017C22.4679 18.5017 22.4653 18.5009 22.4661 18.4992L22.4965 18.5603C22.4817 18.5408 22.5043 18.5969 22.5069 18.6155C22.5372 18.7353 22.5485 18.8958 22.5476 19.0572C22.5398 19.3688 22.5069 19.7094 22.4575 20.027ZM22.1507 18.224C22.1351 18.2351 22.1273 18.2402 22.1143 18.2478C22.1143 18.2478 22.1108 18.2487 22.1091 18.2495L22.1429 18.2291L22.1507 18.224ZM17.2791 15.6983C17.0876 15.7866 16.8744 15.8885 16.6803 15.9939C15.8942 16.4032 15.1298 16.861 14.4061 17.3866C14.0473 17.6533 13.6955 17.9336 13.3644 18.2427C13.2006 18.3981 13.0377 18.5578 12.8843 18.7293C12.8513 18.7667 12.8201 18.8058 12.7881 18.8431C12.6667 18.6911 12.5411 18.5442 12.4102 18.4032C12.0973 18.0746 11.7576 17.7782 11.4083 17.4979C11.0539 17.2236 10.6916 16.9612 10.3129 16.7259C9.93759 16.4856 9.55106 16.2648 9.15759 16.0584C8.96346 15.9505 8.75286 15.8503 8.56046 15.7595C8.36459 15.6745 8.16093 15.5854 7.96159 15.5115L9.27286 14.8185C9.68019 14.6036 10.1811 14.6682 10.5174 14.9807L12.2169 16.562C12.4163 16.7472 12.6719 16.8406 12.9285 16.8406C13.1841 16.8406 13.4407 16.7472 13.64 16.562L15.6238 14.7166C15.7807 14.5722 16.0155 14.551 16.1941 14.6682L17.5816 15.5701C17.4802 15.6125 17.3779 15.6558 17.2791 15.6983ZM12.8149 27.9388L12.8123 27.9371C12.821 27.9439 12.8271 27.949 12.8149 27.9388ZM4.6908 19.3111C4.73066 19.4003 4.76273 19.4801 4.79046 19.5565C4.8208 19.6423 4.8416 19.7298 4.86326 19.8189C4.90573 19.9956 4.92653 20.1773 4.93953 20.3548C4.94993 20.5323 4.94906 20.709 4.9222 20.8618C4.90833 20.9366 4.88753 21.0071 4.86153 21.0453C4.8364 21.0945 4.81733 21.0776 4.82773 21.0767C4.8234 21.0691 4.81646 21.0699 4.81646 21.0699C4.76273 21.0657 4.72026 21.0572 4.7064 21.0487C4.65786 21.0351 4.5738 21.0028 4.5062 20.9714C4.3632 20.9018 4.22106 20.8117 4.09193 20.7073C3.84926 20.5068 3.6378 20.2623 3.52946 20.0177C3.50693 19.8707 3.48613 19.7111 3.474 19.5574C3.4558 19.3884 3.44106 19.2194 3.43933 19.058C3.43673 18.8975 3.44973 18.7387 3.4766 18.6206C3.47833 18.6036 3.50086 18.5476 3.4844 18.5697L3.513 18.5102C3.52686 18.4873 3.56326 18.4508 3.60833 18.4202C3.656 18.3879 3.7158 18.3574 3.77906 18.3344C3.82326 18.3157 3.87353 18.303 3.9056 18.2954L3.96973 18.3361C4.03126 18.3794 4.09366 18.427 4.15 18.4797C4.37793 18.6886 4.53306 18.9807 4.6908 19.3111ZM3.85187 18.2614C3.84927 18.2597 3.8458 18.2588 3.84407 18.258C3.8302 18.2504 3.8224 18.2453 3.80593 18.2334L3.81373 18.2385L3.85187 18.2614ZM7.94948 12.3565C8.05174 11.818 8.13148 11.2023 8.13408 10.6486C8.14968 10.0821 8.13668 9.51652 8.10808 8.95685L8.01361 7.30079C7.99454 6.75641 7.99628 6.23581 8.09854 5.71691C8.17308 5.19121 8.33514 4.68845 8.54228 4.21201C8.74854 3.73302 9.05361 3.30584 9.41588 2.93896C10.1439 2.2001 11.1674 1.77462 12.2325 1.64213L12.6269 1.60222L13.0507 1.58693L13.4389 1.60052L13.8315 1.64808C14.3524 1.73216 14.8516 1.92239 15.3014 2.19501C15.7521 2.46762 16.1542 2.82261 16.4948 3.22941C16.8389 3.64215 17.1058 4.08802 17.3233 4.58823C17.5296 5.06552 17.6631 5.59801 17.7671 6.12965C17.8494 6.56277 17.9075 7.00524 17.9491 7.44431C17.2835 7.34325 16.6153 7.21331 15.9592 7.0545C15.5813 6.95938 15.2052 6.85832 14.8343 6.74367C14.6462 6.69186 14.4651 6.62307 14.2813 6.56277C14.0976 6.50078 13.9147 6.43878 13.7371 6.36405C13.3739 6.22901 13.0264 6.06765 12.6823 5.90205C12.509 5.82052 12.3495 5.71776 12.1831 5.62773C12.0133 5.53941 11.8607 5.43155 11.7091 5.32285C11.5565 5.21499 11.3971 5.11478 11.2688 4.98484C11.1414 4.85915 10.9776 4.74535 10.8788 4.61201C10.7765 4.47528 10.6621 4.36318 10.5607 4.21371L10.2877 3.6982L9.68974 4.00819L9.97314 4.51774C10.0338 4.60692 10.1057 4.69694 10.1794 4.78611C10.1482 4.84556 10.1109 4.91435 10.0589 4.99928C9.92114 5.22858 9.71141 5.52243 9.46181 5.77975C9.21481 6.03963 8.92881 6.25704 8.69914 6.39292C8.58474 6.46341 8.48594 6.51267 8.41401 6.54409C8.34381 6.57721 8.30308 6.59675 8.30308 6.59675L8.48681 7.04431C8.48681 7.04431 8.53448 7.02392 8.61768 6.98911C8.70261 6.95683 8.82048 6.90418 8.95568 6.82944C9.22868 6.68422 9.56841 6.44812 9.86221 6.16702C10.1586 5.88846 10.4091 5.56913 10.5772 5.3169C10.5911 5.29652 10.6015 5.27869 10.6145 5.25915C10.6933 5.3254 10.7731 5.38909 10.8502 5.46128C11.0019 5.60565 11.1769 5.71351 11.3477 5.82816C11.5167 5.94536 11.6874 6.05916 11.8694 6.14918C12.0497 6.24345 12.2239 6.34791 12.4085 6.43114C12.7759 6.60014 13.1443 6.7598 13.5239 6.89229C13.7111 6.96702 13.8991 7.02223 14.0907 7.08252C14.2822 7.14197 14.4651 7.19802 14.6583 7.24728C15.0431 7.35769 15.4184 7.43242 15.8075 7.52159C16.2001 7.60907 16.5407 7.67616 16.9073 7.73391C16.8337 8.67829 16.2929 13.2932 12.7699 13.2932C10.0693 13.2932 9.20354 9.50293 8.95654 7.87319L8.46948 7.94368C8.68614 9.37299 9.35954 12.3471 11.2723 13.3968C11.1865 13.503 11.0816 13.6304 10.9525 13.7747L10.8303 13.9132C10.6873 14.0771 10.5789 14.1977 10.4073 14.342C9.97574 14.156 9.47221 14.1654 9.03888 14.3947L7.41474 15.2525C7.47368 14.855 7.56468 14.4125 7.64181 13.9981L7.94948 12.3565ZM11.7342 13.6023C12.0497 13.7127 12.3937 13.7747 12.7699 13.7747C13.2855 13.7747 13.7423 13.6873 14.1496 13.5369C14.3307 13.7849 14.6453 14.1747 15.0717 14.5654L13.3011 16.2121C13.0923 16.4066 12.7647 16.4066 12.5558 16.2121L10.8563 14.6316C10.8493 14.6248 10.8407 14.6206 10.8337 14.6138C10.9759 14.4839 11.0833 14.3641 11.2038 14.2274L11.3234 14.0924C11.4993 13.8953 11.638 13.7246 11.7342 13.6023ZM18.2767 15.3195C18.2351 15.334 18.1935 15.3476 18.1519 15.362L16.4662 14.2656C16.1533 14.0626 15.7651 14.0711 15.4548 14.2554C15.0778 13.9174 14.7875 13.5709 14.6063 13.3314C16.8839 12.1059 17.319 8.69782 17.3944 7.801C17.4507 7.80864 17.5088 7.81544 17.5669 7.82223C17.5634 7.8596 17.5599 7.90036 17.5556 7.94707C17.5461 8.05578 17.5339 8.18742 17.5201 8.33859C17.5088 8.48296 17.4845 8.6647 17.4802 8.87107C17.4655 9.65155 17.527 10.6452 17.6206 11.649C17.6691 12.1475 17.722 12.652 17.8069 13.1233C17.8893 13.5913 17.9811 14.021 18.0626 14.3879C18.1536 14.7845 18.2273 15.1055 18.2767 15.3195ZM21.9565 23.9523C21.0899 24.0449 17.6483 24.568 14.0707 27.3833L14.2865 27.7596C18.2715 24.6241 21.7945 24.416 21.8309 24.4143L21.9565 24.4033V23.9523ZM21.9565 21.6568L22.2079 21.4623C22.5788 21.1761 22.8856 20.8194 23.1109 20.4126L23.1993 20.2538L23.2149 20.2122C23.2912 19.824 23.3449 19.4555 23.3345 19.0512C23.3285 18.8499 23.3189 18.6444 23.2531 18.4117C23.2297 18.3438 23.2201 18.3132 23.1707 18.2104L23.1361 18.151C23.1101 18.1128 23.0815 18.0746 23.052 18.0389C22.9489 17.9234 22.8397 17.8495 22.7279 17.7901C22.6169 17.7315 22.4436 17.6907 22.3292 17.661C22.2321 17.6372 21.9565 17.6227 21.9565 17.6193V14.7616L21.8057 14.7251H21.8075C20.9191 14.7251 20.0533 14.9093 19.1901 15.1395C19.0463 15.1786 18.9024 15.1743 18.7594 15.2151C18.7187 15.0011 18.6597 14.6741 18.5895 14.3081C18.5228 13.942 18.4474 13.5038 18.3841 13.0486C18.3191 12.5968 18.2853 12.1017 18.2559 11.6074C18.1987 10.624 18.1753 9.62097 18.2151 8.90674C18.2247 8.73944 18.2515 8.57978 18.2697 8.42266C18.2888 8.27149 18.3061 7.78486 18.32 7.67616C18.333 7.57425 18.3434 7.08167 18.3503 7.08167C18.3503 7.08167 18.372 6.42009 18.2749 5.86213C18.1727 5.30416 18.0461 4.83961 17.8199 4.29184C17.6024 3.77039 17.3017 3.28801 16.9342 2.83875C16.5884 2.41496 16.1802 2.05402 15.7148 1.74999C15.1905 1.40858 14.2389 1.07822 13.614 1.00603C13.5733 1.00179 13.5317 0.99669 13.4909 0.992444L13.0316 0.974609L12.6069 0.98565L12.1563 1.02387C10.9837 1.15211 9.7972 1.61495 8.9314 2.46762C8.50327 2.88885 8.1436 3.38397 7.90094 3.92326C7.65654 4.46084 7.4702 5.0239 7.38007 5.59546C7.2596 6.16532 7.24834 6.7615 7.26047 7.32371L7.33154 8.98912C7.35667 9.67872 7.35754 10.3615 7.30987 11.0435C7.28214 11.4367 7.21627 11.8274 7.13827 12.2146L6.80894 13.8384C6.72834 14.2503 6.63907 14.6333 6.568 15.0597C5.74034 14.8304 4.9014 14.6512 4.046 14.5229L3.75654 14.4805V14.7616C3.75654 15.7119 3.77127 16.6614 3.7652 17.6117C3.69327 17.6193 3.63087 17.6312 3.56327 17.6465C3.448 17.6762 3.33794 17.717 3.2244 17.7756C3.11174 17.8359 3.00167 17.9089 2.89594 18.027C2.86474 18.0635 2.837 18.1026 2.81014 18.1425L2.7746 18.2011C2.72347 18.3073 2.7148 18.337 2.68967 18.4066C2.62034 18.641 2.6082 18.8482 2.60127 19.0512C2.59694 19.2533 2.60474 19.4487 2.62294 19.6406C2.6472 19.8351 2.67494 20.0168 2.7148 20.2164L2.72434 20.2623L2.73907 20.2962C2.941 20.748 3.27207 21.0674 3.63954 21.3111C3.82414 21.4325 4.02 21.537 4.23754 21.6151C4.35194 21.6517 4.45247 21.6831 4.59634 21.7035C4.6778 21.7162 4.73154 21.7171 4.77487 21.7162C4.8702 21.7171 4.96294 21.6975 5.05134 21.6686C5.24027 21.5905 5.3668 21.4308 5.41447 21.3009C5.47167 21.1667 5.489 21.047 5.50114 20.9332C5.51934 20.7064 5.49854 20.5001 5.46907 20.2971C5.4396 20.095 5.38587 19.9013 5.33994 19.7068L5.2602 19.4155C5.22987 19.3111 5.19867 19.2126 5.16747 19.1259L5.16487 19.12C5.04354 18.7803 4.89447 18.3922 4.6128 18.0652C4.5452 17.982 4.47067 17.9064 4.39007 17.8334L4.26614 17.7289L4.2618 17.7264C4.25487 16.8363 4.26007 15.9471 4.2618 15.058C5.0158 15.1964 5.77067 15.3722 6.50387 15.5947C6.9164 15.7187 7.3246 15.8588 7.7198 16.0193C7.92174 16.0975 8.10634 16.1841 8.2996 16.2716C8.50154 16.3718 8.68354 16.4627 8.869 16.5705C9.246 16.7777 9.61347 16.9985 9.9688 17.2355C10.3397 17.4758 10.6907 17.7425 11.0305 18.0185C11.3823 18.303 11.7082 18.6172 12.0046 18.9561C12.1095 19.0758 12.2109 19.1981 12.3027 19.3247C12.4076 19.464 12.4102 19.3986 12.4778 19.5285L12.4951 24.0143L12.4111 26.2988L12.3235 27.4402V27.5447L12.3556 27.4954C12.0523 27.2475 11.9006 27.2203 11.5773 26.9961L11.1258 26.6496L10.5529 26.2691C10.2418 26.0619 9.91854 25.8725 9.58747 25.6967C9.25727 25.5218 8.92794 25.3468 8.58647 25.1931C8.2294 25.0258 7.86714 24.8746 7.49794 24.7362C7.127 24.6003 6.75434 24.4712 6.37387 24.3651C5.99514 24.253 5.35554 24.1638 4.96727 24.0865C4.65094 24.0287 3.75654 23.9837 3.75654 23.9549V24.1731V24.1876C3.75654 24.1876 4.49667 24.3302 5.06087 24.4619C5.43007 24.5485 5.83047 24.6886 6.19447 24.8024C6.55934 24.9094 6.932 25.0674 7.28734 25.2033C7.69554 25.3629 8.10634 25.5583 8.4946 25.7485C8.8404 25.9184 9.17667 26.1018 9.50687 26.2988C9.78247 26.4627 10.0624 26.625 10.3241 26.8101L10.7982 27.1286L11.2541 27.4708C11.4768 27.639 11.6952 27.8131 11.9084 27.9931L12.3547 28.3693L12.4284 28.4296C12.4284 28.4296 12.4761 28.4636 12.509 28.4797C12.5437 28.4967 12.5697 28.5061 12.6017 28.5154C12.7274 28.5485 12.8617 28.5349 12.9744 28.4763C13.0888 28.4211 13.2041 28.3133 13.2448 28.1893C13.2639 28.1358 13.2899 28.0458 13.2899 28.0245V27.9524L13.2699 27.667L13.2639 26.5256L13.2725 24.2411L13.2899 19.6729V19.6695V19.5913L13.2569 19.5344C13.2535 19.5285 13.2474 19.5234 13.2448 19.5175C13.315 19.4189 13.3913 19.3179 13.4727 19.2228C13.6036 19.0673 13.7466 18.9179 13.8931 18.771C14.1895 18.4788 14.5119 18.2062 14.8438 17.9446C15.5155 17.4274 16.2391 16.9654 16.9905 16.5476C17.1769 16.4397 17.3554 16.3497 17.5582 16.2486C17.7515 16.1612 17.9326 16.0779 18.1345 15.9998C18.528 15.8393 19.1182 15.7077 19.5307 15.5854C20.2639 15.3671 21.0899 15.0953 21.9565 15.0376V17.8317V17.9828C21.8759 18.0559 21.6272 18.1425 21.5587 18.224C21.2762 18.5493 20.8784 19.3111 20.8489 19.4147L20.6964 19.7068C20.6522 19.9022 20.5655 20.0958 20.5369 20.2979C20.5083 20.5001 20.4702 20.7064 20.4901 20.9323C20.5014 21.0453 20.5109 21.1642 20.569 21.2958C20.6167 21.4232 20.7371 21.5795 20.9209 21.6551C21.0084 21.6831 21.0968 21.7018 21.1895 21.7009C21.2329 21.7009 21.4695 21.7001 21.5492 21.6873C21.6359 21.6746 21.9565 21.6568 21.9565 21.6372V21.6568Z" fill="black"/>
<path fill-rule="evenodd" clip-rule="evenodd" d="M21.668 18.1754H22.045V14.6884L21.668 14.7249V18.1754Z" fill="black"/>
<mask id="mask0" mask-type="alpha" maskUnits="userSpaceOnUse" x="2" y="0" width="22" height="29">
<path fill-rule="evenodd" clip-rule="evenodd" d="M2.6001 28.5331H23.336V0.974487H2.6001V28.5331Z" fill="white"/>
</mask>
<g mask="url(#mask0)">
<path fill-rule="evenodd" clip-rule="evenodd" d="M3.7666 24.1297H4.2736V21.1063H3.7666V24.1297Z" fill="black"/>
<path fill-rule="evenodd" clip-rule="evenodd" d="M21.4502 24.1297H21.9572V21.1063H21.4502V24.1297Z" fill="black"/>
</g>
</svg>
