<svg width="24" height="21" viewBox="0 0 24 21" fill="none" xmlns="http://www.w3.org/2000/svg">
<path fill-rule="evenodd" clip-rule="evenodd" d="M12.4741 6.40971L2.26449 6.37549L1.45649 6.78849C1.45649 6.78849 1.28449 7.85162 2.12129 10.2683L4.28289 16.5118C4.28289 16.5118 3.43089 18.0763 8.12289 18.0763C12.8149 18.0763 17.5829 17.6179 18.3493 16.3686C19.1157 15.1201 20.9885 8.98955 21.2437 8.33305C21.4997 7.67735 20.8309 6.44392 19.7965 6.40971C18.7621 6.37549 12.4741 6.40971 12.4741 6.40971Z" fill="#B4E0F1"/>
<path fill-rule="evenodd" clip-rule="evenodd" d="M18.4489 17.9683C18.4489 17.9683 19.7945 14.6182 21.8129 9.59221C22.0537 8.97629 22.3521 8.28319 22.5753 7.65932C22.6305 7.4381 22.5633 7.12696 22.3825 6.94075C22.2937 6.84446 22.1825 6.77364 22.0617 6.73942C21.9993 6.72271 21.9401 6.71555 21.8697 6.71396L21.5785 6.71555C20.0201 6.72112 18.3761 6.72749 16.6761 6.73385C13.2761 6.74738 9.64889 6.76171 6.02169 6.77523C5.11529 6.77842 4.20809 6.7816 3.30489 6.78558L2.62889 6.78797C2.41289 6.78876 2.12729 6.7816 2.08969 6.82139C1.84009 6.89619 1.65049 7.17789 1.64649 7.46038C1.62969 7.67762 1.86649 8.18213 1.98969 8.57762C2.13689 8.99221 2.28249 9.40521 2.42809 9.81582C2.71849 10.6362 3.00569 11.4471 3.28809 12.2453C3.85289 13.84 4.39929 15.3821 4.91609 16.8439C5.06009 17.2736 5.11609 17.4209 5.31769 17.537C5.41449 17.5904 5.49369 17.6118 5.62009 17.6102C5.80649 17.6095 5.99129 17.6087 6.17449 17.6079C6.90809 17.6055 7.61609 17.6031 8.29609 17.5999C13.7369 17.5792 17.3641 17.5657 17.3641 17.5657V18.5866C17.3641 18.5866 13.7369 18.5731 8.29609 18.5516C7.61609 18.5492 6.90809 18.5469 6.17449 18.5437C5.99129 18.5429 5.80649 18.5421 5.62009 18.5413C5.37449 18.5469 5.07449 18.4776 4.84569 18.336C4.60969 18.1967 4.41369 17.9946 4.28329 17.7583C4.13849 17.4789 4.12009 17.3381 4.04489 17.1455C3.53849 15.6797 3.00489 14.1336 2.45209 12.5341C2.17609 11.7344 1.89529 10.9211 1.61129 10.0983C1.46889 9.6869 1.32569 9.27232 1.18249 8.85693L0.965691 8.23067C0.904091 8.0556 0.783291 7.73969 0.801691 7.43571C0.819291 6.83412 1.20649 6.23253 1.82809 6.03359C2.22009 5.9198 2.39769 5.97709 2.62889 5.96356L3.30489 5.96595C4.20809 5.96913 5.11529 5.97311 6.02169 5.97629C9.64889 5.99062 13.2761 6.00415 16.6761 6.01767C18.3761 6.02404 20.0201 6.03041 21.5785 6.03598L21.8697 6.03757C21.9937 6.03916 22.1257 6.05587 22.2489 6.09088C22.4977 6.1633 22.7169 6.30812 22.8817 6.49115C23.2121 6.86356 23.3369 7.35773 23.2137 7.84393C22.9417 8.59115 22.6697 9.19194 22.4145 9.83412C20.3569 14.8442 18.9857 18.184 18.9857 18.184L18.4489 17.9683Z" fill="black"/>
<path fill-rule="evenodd" clip-rule="evenodd" d="M17.8305 9.3802H17.8249L5.96652 9.85208C5.91372 9.85447 5.88412 9.88471 5.87212 9.90301C5.85852 9.92052 5.83932 9.95792 5.85292 10.0081L6.10412 10.8794C6.11852 10.9319 6.16732 10.9677 6.22172 10.9677H17.3537C17.4057 10.9677 17.4521 10.9351 17.4697 10.8866L17.9465 9.54333C17.9649 9.49002 17.9441 9.44943 17.9297 9.43033C17.9153 9.41124 17.8841 9.3802 17.8305 9.3802ZM17.3537 11.5646H6.22171C5.90091 11.5646 5.61451 11.3505 5.52731 11.0425L5.27691 10.172C5.21451 9.95952 5.25451 9.73352 5.38491 9.55288C5.51531 9.37304 5.71931 9.26403 5.94331 9.25607L17.8017 8.78418C18.0489 8.77543 18.2705 8.88365 18.4129 9.07623C18.5545 9.2688 18.5921 9.51787 18.5121 9.74307L18.0353 11.0855C17.9337 11.372 17.6601 11.5646 17.3537 11.5646Z" fill="black"/>
<path fill-rule="evenodd" clip-rule="evenodd" d="M16.5367 15.085C16.5975 15.0866 16.6471 15.0492 16.6599 14.9903L16.9487 13.7688C16.9599 13.7187 16.9391 13.682 16.9247 13.6645C16.9111 13.647 16.8807 13.6184 16.8279 13.6184H16.8271L7.15352 13.6868C7.09992 13.6876 7.06872 13.7179 7.05512 13.7362C7.04152 13.7545 7.02072 13.7919 7.03512 13.8428L7.28392 14.7062C7.29832 14.7571 7.34472 14.7929 7.39752 14.7945L16.5367 15.085ZM16.5407 15.6818C16.5327 15.6818 16.5255 15.6818 16.5183 15.6818L7.37912 15.3913C7.06392 15.3818 6.79352 15.1717 6.70712 14.8701L6.45832 14.0067C6.39592 13.7887 6.43832 13.5595 6.57512 13.3781C6.71192 13.1966 6.92072 13.0916 7.14872 13.09L16.8231 13.0216C17.0727 12.9921 17.2551 13.1195 17.3935 13.2929C17.5327 13.4656 17.5839 13.6892 17.5327 13.9057L17.2447 15.1271C17.1679 15.4518 16.8735 15.6818 16.5407 15.6818Z" fill="black"/>
<path fill-rule="evenodd" clip-rule="evenodd" d="M5.25391 6.13585C5.25391 6.13585 5.84031 5.42842 6.76431 4.40747C7.23151 3.90057 7.78031 3.3133 8.38751 2.69659C8.69551 2.39261 9.01791 2.08227 9.35951 1.77351C9.53231 1.61993 9.70431 1.46556 9.89551 1.31595L10.0379 1.20296L10.0739 1.17511L10.1179 1.14328L10.1883 1.09394C10.2979 1.01993 10.4275 0.940358 10.5699 0.884655C10.7131 0.82736 10.8963 0.776432 11.1115 0.803488C11.3299 0.82736 11.5195 0.949111 11.6339 1.05415C11.6939 1.10747 11.7419 1.15839 11.7843 1.20375L11.8147 1.23717L11.8483 1.27696L11.8611 1.29447C11.8763 1.31436 11.8939 1.33426 11.9315 1.39712C12.0483 1.60004 12.0707 1.77908 12.0659 1.95574C12.0179 2.64248 11.5451 3.02842 11.2795 3.31728C10.6819 3.94513 10.0939 4.4942 9.58751 4.9629C9.08511 5.43558 8.64431 5.80641 8.33951 6.069C8.03391 6.33081 7.85151 6.47325 7.85151 6.47325L7.52431 6.12232C7.52431 6.12232 8.15471 5.46264 9.09951 4.47192C9.56831 3.97537 10.1147 3.39606 10.7003 2.77537C10.8323 2.62816 11.0147 2.44354 11.0907 2.32895C11.1835 2.19526 11.2459 2.03214 11.2451 1.9263C11.2491 1.87935 11.2259 1.82842 11.2299 1.83479C11.2419 1.84672 11.2243 1.82206 11.2043 1.79739L11.1907 1.78068L11.1843 1.77272C11.1787 1.76635 11.2187 1.8141 11.2003 1.79182L11.1971 1.78863L11.1707 1.75839C11.1363 1.7202 11.1059 1.68837 11.0811 1.66529C11.0275 1.61834 11.0131 1.61436 11.0011 1.61277C10.9875 1.60959 10.9395 1.61198 10.8715 1.63903C10.7995 1.66609 10.7315 1.70508 10.6499 1.7568L10.5787 1.80534C10.5715 1.81012 10.5459 1.82763 10.5531 1.82285L10.5211 1.84752L10.3939 1.9454C10.2235 2.07431 10.0547 2.22073 9.88911 2.36397C9.55631 2.65362 9.23631 2.95521 8.92751 3.24725C8.30191 3.82577 7.72991 4.38359 7.24351 4.86503C6.26191 5.82152 5.60831 6.45972 5.60831 6.45972L5.25391 6.13585Z" fill="black"/>
<path fill-rule="evenodd" clip-rule="evenodd" d="M18.3624 6.60498C18.3624 6.60498 17.708 6.13071 16.7264 5.41851C16.2368 5.06201 15.664 4.64981 15.0416 4.22169C14.7312 4.00763 14.4104 3.78641 14.0848 3.56201C13.92 3.45299 13.7544 3.34317 13.588 3.23336L13.336 3.07341C13.2616 3.02646 13.1376 2.94768 13.1408 2.96121C13.0536 2.92938 12.9496 2.93973 12.8704 2.98906C12.8304 3.00179 12.6432 3.21585 12.5968 3.28508C12.5552 3.3575 12.5464 3.45378 12.5816 3.5445C12.5992 3.58906 12.6264 3.63203 12.6616 3.66784C12.6792 3.68614 12.6976 3.70365 12.72 3.71797L12.8344 3.79914C13.4592 4.23044 14.032 4.64901 14.5232 5.0071C15.5072 5.7201 16.1464 6.22063 16.1464 6.22063L15.8744 6.61453C15.8744 6.61453 15.1792 6.19675 14.1608 5.5323C13.6512 5.20126 13.056 4.81612 12.4296 4.38641L12.3096 4.30524C12.252 4.26625 12.1976 4.2201 12.1472 4.17076C12.0464 4.07049 11.964 3.94874 11.908 3.81267C11.7944 3.54291 11.8 3.2079 11.9528 2.93097C11.9752 2.89357 12.0016 2.8506 12.024 2.81957L12.0696 2.75988L12.1808 2.63018C12.2256 2.57129 12.3672 2.42169 12.4952 2.35564C12.7624 2.19729 13.1024 2.16784 13.396 2.27925C13.592 2.35882 13.6304 2.40736 13.728 2.46386L13.9856 2.63256C14.1544 2.74715 14.3224 2.86095 14.4896 2.97474C14.82 3.20312 15.1424 3.4323 15.4504 3.65829C16.0624 4.11506 16.6232 4.55272 17.1016 4.93071C18.0488 5.69941 18.6616 6.23018 18.6616 6.23018L18.3624 6.60498Z" fill="black"/>
</svg>
