<svg width="25" height="27" viewBox="0 0 25 27" fill="none" xmlns="http://www.w3.org/2000/svg">
<path fill-rule="evenodd" clip-rule="evenodd" d="M13.8765 11.3965C13.8765 11.3965 14.9773 12.3084 14.8023 13.5241C14.6381 14.6635 13.2181 15.5615 11.7623 15.8569C10.3065 16.1514 8.09562 15.8294 7.76979 15.7255C7.44395 15.6225 6.92979 16.0338 6.88812 16.5189C6.84645 17.004 9.88979 25.2026 9.88979 25.2026C9.88979 25.2026 12.7248 25.8388 15.9815 24.2358C19.4698 22.5195 19.9606 20.6006 19.9606 20.6006L16.839 11.7426L15.8798 11.1433L14.7581 10.9235L13.8765 11.3965Z" fill="#B0A7D2"/>
<path fill-rule="evenodd" clip-rule="evenodd" d="M8.41108 18.3608L8.14941 17.7795C8.14941 17.7795 11.4177 17.546 12.9394 17.0033C14.6636 16.3894 16.3402 14.8955 16.3402 14.8955C16.3402 14.8955 17.7594 19.0571 17.8361 19.349C17.9119 19.6409 16.4069 20.648 15.9336 20.9374C15.4594 21.2267 13.5861 22.3686 12.0269 22.4442C10.4686 22.5206 9.74275 22.5283 9.74275 22.5283L8.41108 18.3608Z" fill="white"/>
<mask id="mask0" mask-type="alpha" maskUnits="userSpaceOnUse" x="4" y="0" width="10" height="16">
<path fill-rule="evenodd" clip-rule="evenodd" d="M13.9888 0.0251465H4.1665V15.2557H13.9888V0.0251465Z" fill="white"/>
</mask>
<g mask="url(#mask0)">
<path fill-rule="evenodd" clip-rule="evenodd" d="M13.5573 12.6486L8.789 0.746924L9.0965 1.01738C9.01817 0.997631 8.91234 0.976166 8.81734 0.960712C8.72067 0.94354 8.6215 0.928944 8.52317 0.917782C8.32567 0.895459 8.1265 0.880004 7.92984 0.879146C7.5365 0.878287 7.14317 0.916924 6.78734 1.03197L6.654 1.07662C6.62567 1.08521 6.56067 1.1144 6.5165 1.13243C6.4115 1.17364 6.33484 1.21399 6.2465 1.25435C6.069 1.3445 5.894 1.44238 5.72484 1.55228C5.55567 1.66303 5.3915 1.78238 5.23484 1.91117C5.15567 1.9747 5.07984 2.04167 5.00484 2.1095C4.93234 2.17561 4.85484 2.25202 4.79734 2.31298V2.31384L4.86567 1.98071L8.63067 14.6852L8.46984 14.5315C8.704 14.5865 8.94984 14.6337 9.1915 14.6732C9.434 14.7118 9.67817 14.7436 9.9215 14.7668C10.1657 14.7857 10.4098 14.8028 10.6507 14.7977C10.7715 14.8003 10.8898 14.7874 11.0098 14.7822C11.1257 14.7659 11.2465 14.7599 11.3582 14.7316C11.474 14.7135 11.579 14.6766 11.6865 14.6431C11.7915 14.6002 11.9207 14.5504 12.0273 14.5015C12.2448 14.4053 12.4632 14.2911 12.6715 14.1683C12.879 14.043 13.079 13.9048 13.2648 13.7519C13.3582 13.6755 13.6573 13.4231 13.7023 13.2325L13.7923 13.3389C13.9132 13.4806 13.9157 13.6918 13.7998 13.8378C13.7057 13.958 13.5998 14.0593 13.5415 14.1074C13.3357 14.2765 13.119 14.4268 12.894 14.5624C12.6673 14.6955 12.439 14.8157 12.1957 14.923C12.074 14.9788 11.9673 15.0192 11.8398 15.0716C11.7073 15.1145 11.5748 15.1583 11.4423 15.1798C11.3098 15.2115 11.179 15.2192 11.0473 15.2373C10.9165 15.2433 10.7848 15.257 10.6557 15.2544C10.3957 15.2605 10.139 15.2424 9.88317 15.2218C9.62734 15.1986 9.374 15.1652 9.12234 15.1248C8.869 15.0844 8.62234 15.0372 8.36734 14.9771L8.2465 14.9488L8.2065 14.8226L4.22484 2.18849L4.1665 2.00475L4.29317 1.85622L4.294 1.8545C4.38067 1.75404 4.45567 1.67677 4.53817 1.59263C4.62067 1.51192 4.70317 1.43293 4.78984 1.35738C4.96067 1.20627 5.13984 1.06374 5.32567 0.930661C5.51234 0.798439 5.7065 0.678237 5.90817 0.565762C6.0115 0.51253 6.12484 0.450712 6.21734 0.410358C6.2715 0.386318 6.304 0.368287 6.37484 0.339095L6.54317 0.274701C6.99567 0.108994 7.4615 0.0463176 7.91817 0.0282873C8.14734 0.0197015 8.37484 0.0282873 8.6015 0.0446005C8.71567 0.0523277 8.82817 0.0643479 8.94234 0.0789439C9.05817 0.0943984 9.16317 0.109853 9.29234 0.136469H9.29317L9.51734 0.188843L9.6015 0.406924L13.9157 11.5308C14.0165 11.7926 14.0265 11.9661 13.8615 12.3207C13.7248 12.6126 13.5573 12.6486 13.5573 12.6486Z" fill="#181716"/>
</g>
<path fill-rule="evenodd" clip-rule="evenodd" d="M10.4419 18.7127C10.7827 18.6723 11.1244 18.6294 11.4652 18.571C11.6361 18.5436 11.8052 18.5118 11.9777 18.4783C12.1527 18.4422 12.3261 18.4053 12.4877 18.3633C12.6602 18.322 12.8361 18.2671 13.0052 18.2113C13.1752 18.152 13.3419 18.0885 13.5044 18.0172C13.6686 17.9494 13.8277 17.8713 13.9852 17.7923C14.1427 17.7124 14.2977 17.6292 14.4502 17.5416C14.7552 17.3682 15.0527 17.1827 15.3427 16.9869C15.4877 16.8891 15.6311 16.7886 15.7711 16.6839C15.7911 16.6693 15.8111 16.6538 15.8311 16.6392C15.8311 16.6392 16.7952 19.1849 16.8786 19.4562C16.9419 19.6649 16.9344 19.8357 16.9344 19.8357C16.9552 19.8606 17.0519 19.8486 17.1936 19.7138C17.3252 19.5885 17.4244 19.3343 17.3536 19.1222L16.3011 15.9678L16.1527 15.5265L15.7777 15.8133V15.8141C15.6527 15.9103 15.5144 16.0107 15.3786 16.1052L14.9644 16.3868C14.6861 16.5705 14.4019 16.744 14.1136 16.9054C13.8252 17.0694 13.5286 17.211 13.2311 17.3424C13.0819 17.4077 12.9311 17.466 12.7802 17.5193C12.6277 17.5708 12.4794 17.6189 12.3227 17.6566C12.1561 17.7004 11.9969 17.7348 11.8402 17.7683C11.6802 17.8 11.5161 17.8318 11.3527 17.8593C11.0261 17.9168 10.6944 17.9597 10.3636 18.0009C10.0319 18.0421 9.69775 18.0636 9.36441 18.0945C9.03108 18.1237 8.69358 18.1443 8.36441 18.1563L7.89941 18.1735L9.62358 22.8477L9.80108 22.8485C10.1161 22.8477 10.4111 22.8391 10.7202 22.8236C11.0277 22.8082 11.3302 22.7884 11.6386 22.7584C11.9461 22.73 12.2511 22.6931 12.5586 22.645C12.8661 22.5978 13.1711 22.536 13.4777 22.4596C13.6302 22.4175 13.7827 22.3771 13.9344 22.3222C14.0869 22.269 14.2377 22.2106 14.3777 22.1445C14.6719 22.0088 14.9436 21.8586 15.2136 21.6963C15.6177 21.4516 15.9319 21.2661 16.3869 20.8969C16.5852 20.7364 16.6361 20.4513 16.4861 20.2427L16.4636 20.2152C16.0602 20.6437 15.5069 20.9862 14.9861 21.2859C14.7269 21.4344 14.4569 21.5735 14.1927 21.6877C14.0544 21.7495 13.9186 21.7967 13.7819 21.8414C13.6452 21.8869 13.5019 21.9212 13.3594 21.9573C13.0719 22.0217 12.7794 22.0741 12.4836 22.1118C12.1877 22.1513 11.8894 22.1797 11.5894 22.2003C11.2902 22.2226 10.9894 22.2338 10.6894 22.2423C10.4577 22.2484 10.2252 22.2492 9.99441 22.2466L8.84275 18.8449C9.03441 18.8346 9.22608 18.8226 9.41775 18.8089C9.75941 18.784 10.1011 18.7522 10.4419 18.7127Z" fill="#181716"/>
<path fill-rule="evenodd" clip-rule="evenodd" d="M7.48715 14.3225C7.48715 14.3225 7.33632 14.3346 7.11548 14.4762C6.88632 14.6239 6.55715 14.8592 6.24548 15.2344C6.17132 15.3245 6.08882 15.4404 6.03298 15.5349L6.00382 15.5864C5.99548 15.6018 5.99465 15.607 5.98882 15.6182C5.98132 15.6353 5.96798 15.6654 5.95882 15.6903C5.93965 15.7418 5.92382 15.7967 5.91215 15.8534C5.88798 15.9667 5.88382 16.0895 5.90465 16.214C5.91965 16.3119 5.99132 16.5248 6.04298 16.7077C6.27132 17.4615 6.51382 18.3167 6.78132 19.2483C7.05132 20.179 7.34382 21.1869 7.65298 22.2533C7.81132 22.7848 7.97298 23.3308 8.13965 23.8889C8.22382 24.1662 8.30965 24.447 8.39632 24.7303C8.48382 25.0042 8.57882 25.3133 8.66798 25.5451L8.68382 25.588C8.67298 25.5692 8.71382 25.6456 8.66132 25.5486L8.66882 25.5606L8.68382 25.5838L8.69965 25.6078C8.70382 25.6121 8.69882 25.5992 8.69798 25.5966C8.69298 25.5872 8.68632 25.5786 8.67798 25.5735C8.67798 25.5735 8.70298 25.588 8.71382 25.5975L8.77965 25.631C8.88048 25.6756 9.00465 25.716 9.13548 25.7486C9.39715 25.8147 9.68382 25.8559 9.97215 25.886C10.5522 25.9452 11.153 25.9521 11.7555 25.928C12.9588 25.8705 14.1938 25.6894 15.3222 25.2687C15.3938 25.2438 15.4613 25.2128 15.5305 25.1854L15.6288 25.1442L15.7363 25.0944C15.8772 25.0274 16.028 24.9639 16.1613 24.8935C16.4313 24.7595 16.7022 24.6127 16.9688 24.459C17.4997 24.1491 18.0105 23.8039 18.4846 23.4253C18.953 23.0475 19.4121 22.6319 19.7263 22.1829C19.7655 22.1271 19.7922 22.073 19.8263 22.0189C19.843 21.9914 19.8471 21.9691 19.8588 21.9442C19.8655 21.9236 19.8871 21.8901 19.883 21.8798C19.8838 21.8652 19.888 21.8523 19.8938 21.8386C19.8946 21.8292 19.8963 21.909 19.8946 21.8678L19.893 21.8532L19.8888 21.8249L19.8813 21.7673C19.8738 21.6832 19.8538 21.6317 19.8388 21.569C19.813 21.4574 19.7705 21.3063 19.7296 21.162C19.6905 21.0187 19.6455 20.8744 19.6021 20.7302C19.2513 19.5805 18.8738 18.4712 18.518 17.422C18.158 16.372 17.8172 15.3803 17.503 14.4642C17.3447 14.0066 17.1922 13.5687 17.048 13.1514C16.9747 12.9437 16.9038 12.7402 16.8347 12.5427C16.7613 12.3392 16.7122 12.1606 16.6288 12.0318C16.5463 11.8945 16.4405 11.7786 16.3222 11.6901C16.2622 11.6463 16.2005 11.6086 16.1363 11.5776C16.0713 11.545 16.013 11.5261 15.928 11.4969C15.6388 11.4059 15.3497 11.3561 15.0921 11.3347C14.5713 11.2935 14.1555 11.3493 13.8763 11.3965C13.7372 11.4231 13.6297 11.4446 13.5588 11.4626C13.4863 11.4798 13.4497 11.4884 13.4497 11.4884C13.413 11.3467 13.3772 11.2042 13.3405 11.0616C13.3788 11.0513 13.4172 11.041 13.4555 11.0307C13.5313 11.0093 13.6455 10.9818 13.7955 10.9483C14.0947 10.8882 14.543 10.8118 15.1238 10.8393C15.4146 10.8539 15.7322 10.8994 16.0797 11.0024C16.1522 11.0256 16.2563 11.0573 16.3472 11.1011C16.4405 11.1441 16.5313 11.1964 16.6188 11.2583C16.793 11.3827 16.9488 11.5467 17.0722 11.7434C17.103 11.7923 17.1305 11.8429 17.158 11.8962L17.198 11.9829L17.2263 12.0542C17.263 12.1512 17.2997 12.2499 17.3372 12.3504C17.4096 12.547 17.4847 12.7488 17.5613 12.9557C17.7147 13.3704 17.8747 13.8057 18.0422 14.2607C18.3763 15.1708 18.7363 16.1573 19.1038 17.2065C19.4713 18.2566 19.8597 19.3607 20.228 20.5258C20.2738 20.6718 20.3213 20.8169 20.3638 20.968C20.4072 21.1174 20.4521 21.2608 20.4955 21.4488C20.5155 21.5364 20.5405 21.6325 20.5471 21.7038L20.5555 21.7613L20.5596 21.7897L20.5613 21.8043C20.5605 21.7734 20.5655 21.8626 20.5638 21.8626C20.5563 21.9253 20.5463 21.988 20.5338 22.0507C20.523 22.1185 20.4997 22.152 20.4822 22.2044C20.4622 22.2499 20.4447 22.3031 20.4222 22.3426C20.3763 22.4207 20.333 22.5057 20.2838 22.577C19.8897 23.1479 19.4113 23.5738 18.9138 23.9885C18.413 24.3972 17.8805 24.7655 17.3247 25.0978C17.0463 25.2618 16.763 25.4198 16.4688 25.57C16.3222 25.6482 16.1821 25.7083 16.038 25.7787L15.9313 25.8293L15.8113 25.8817C15.7347 25.9135 15.6588 25.9487 15.5805 25.977C14.3438 26.4518 13.058 26.6484 11.7922 26.724C11.158 26.7566 10.528 26.7566 9.89798 26.6999C9.58298 26.6699 9.26965 26.6295 8.94882 26.5531C8.78798 26.5136 8.62548 26.4664 8.45298 26.3908L8.31882 26.3239C8.26798 26.2904 8.22882 26.268 8.16965 26.2217C8.13382 26.1908 8.09882 26.1564 8.06715 26.1212C8.05298 26.1049 8.03298 26.0809 8.02548 26.0706L8.00965 26.0474L7.99382 26.0234L7.98632 26.0122C7.92715 25.9074 7.96632 25.9736 7.95132 25.9461L7.92548 25.8834C7.79465 25.552 7.71465 25.2858 7.61715 24.9939C7.52632 24.7089 7.43715 24.4264 7.34798 24.1473C7.17632 23.5893 7.00715 23.0423 6.84382 22.5109C6.52298 21.4454 6.21965 20.4391 5.94048 19.5093C5.66298 18.5794 5.40798 17.7277 5.19798 16.9678C5.14715 16.7704 5.08715 16.6227 5.04132 16.3565C5.00465 16.117 5.01548 15.8783 5.06465 15.6585C5.08882 15.5477 5.12215 15.4421 5.16632 15.3434C5.18798 15.2927 5.20882 15.2498 5.23715 15.1966L5.27882 15.1236L5.31048 15.0738C5.42048 14.9064 5.51798 14.787 5.62632 14.6651C6.09298 14.1577 6.96715 13.6099 7.48715 14.3225Z" fill="#181716"/>
</svg>
