<svg width="25" height="27" viewBox="0 0 25 27" fill="none" xmlns="http://www.w3.org/2000/svg">
<path fill-rule="evenodd" clip-rule="evenodd" d="M8.74811 16.1957C7.78061 14.8915 7.59727 15.2482 7.59727 15.2482C7.59727 15.2482 4.05811 16.4423 2.33144 14.259C0.604774 12.0757 -0.316892 8.97401 1.08561 7.05401C2.48811 5.13401 4.16894 4.47401 5.60394 4.34818C7.03894 4.22151 11.0398 5.15985 13.1514 5.18151C17.3598 5.22401 20.5414 4.95818 20.5414 4.95818L21.3256 9.14318C21.3256 9.14318 16.6689 10.3948 14.8639 11.7948C13.0589 13.1948 12.0256 14.5015 12.3014 15.9315C12.3014 15.9315 11.6198 17.349 13.6581 20.1932C15.1006 22.2048 15.2223 23.4223 14.6664 23.754C14.1114 24.0857 13.0414 24.4723 11.9114 22.7232C10.7814 20.974 8.74811 16.1957 8.74811 16.1957Z" fill="#F6CEA9"/>
<path fill-rule="evenodd" clip-rule="evenodd" d="M22.8999 2.07834C22.8999 2.07834 22.9966 2.29834 23.1782 2.71168C23.3516 3.12834 23.5941 3.74584 23.8432 4.55084C24.0907 5.35668 24.3149 6.35668 24.4799 7.51918C24.4949 7.68251 24.5282 7.76668 24.5282 8.00001C24.5157 8.20501 24.4099 8.43251 24.1849 8.54751C23.8216 8.67501 23.5657 8.73418 23.2382 8.83418C22.6132 9.01584 21.9566 9.20668 21.2707 9.40668C19.8907 9.77501 18.4707 10.31 17.0107 11.0342C15.5399 11.7442 14.0949 12.615 12.5457 13.555C10.9741 14.4525 9.22573 15.1833 7.3999 15.6917C6.96656 15.815 6.4624 15.9767 5.94656 16.005C5.4349 16.0325 4.91073 16.0067 4.41406 15.8683C3.41573 15.6125 2.50406 15.0583 1.79906 14.3208C1.08823 13.605 0.565731 12.6433 0.278231 11.7175C-0.0276025 10.73 -0.0667691 9.70918 0.0898976 8.71584C0.274064 7.73251 0.672398 6.78084 1.3224 6.02418C1.63656 5.64001 2.0149 5.31001 2.43156 5.04751C2.63323 4.91084 2.86073 4.79751 3.09573 4.69501C3.33573 4.58834 3.5049 4.54501 3.76323 4.46084C5.4799 3.95668 7.22906 3.62334 8.88156 3.51751C9.70906 3.45418 10.5282 3.46584 11.2841 3.46418C12.0491 3.45918 12.7882 3.43584 13.4957 3.39501C14.9116 3.31418 16.2032 3.16334 17.3282 2.94418C18.4407 2.73251 19.4182 2.41501 20.2224 2.21001C21.0257 1.99084 21.6574 1.81834 22.0882 1.70084C22.1907 1.65918 22.4032 1.65084 22.5082 1.70334C22.6299 1.74834 22.7099 1.81751 22.7657 1.87584C22.8207 1.93584 22.8524 1.98834 22.8766 2.03084C22.8899 2.05751 22.8966 2.07084 22.8966 2.07084L22.8999 2.07834ZM22.5216 2.26084C22.5216 2.26084 22.5149 2.24751 22.5016 2.22168C22.4957 2.21501 22.4824 2.19084 22.4582 2.16668C22.3982 2.12084 22.3549 2.06001 22.2049 2.11584C21.7766 2.24001 21.1474 2.42251 20.3474 2.65501C19.5407 2.87418 18.5941 3.20168 17.4299 3.44501C16.2799 3.68834 14.9674 3.86168 13.5332 3.96668C12.8157 4.02001 12.0682 4.05584 11.2932 4.07334C10.5099 4.08751 9.73573 4.08918 8.93156 4.16334C7.3174 4.29501 5.66156 4.63584 3.96073 5.16418C2.3499 5.59084 1.15406 7.12418 0.899898 8.85085C0.776564 9.70835 0.835731 10.6233 1.1024 11.4458C1.24823 11.9242 1.40156 12.2742 1.62406 12.6742C1.8474 13.055 2.1024 13.4208 2.41156 13.735C3.0074 14.3833 3.78073 14.8675 4.61573 15.0975C5.0324 15.2233 5.4674 15.2483 5.8949 15.235C6.32573 15.2192 6.72823 15.0975 7.1974 14.9733C8.99156 14.5075 10.6841 13.8333 12.2291 12.9875C13.7474 12.1025 15.2782 11.2167 16.7699 10.5308C18.2557 9.82335 19.7541 9.29084 21.1416 8.94751C21.8307 8.76001 22.4907 8.58084 23.1191 8.41001C23.4199 8.32668 23.7132 8.24584 23.9982 8.16751C24.0541 8.14418 24.1057 8.06418 24.1082 7.97251C24.1132 7.90668 24.0757 7.70084 24.0616 7.57584C23.9032 6.44001 23.6499 5.46668 23.4182 4.67834C23.1866 3.88751 22.9557 3.28168 22.7866 2.87418C22.6116 2.46918 22.5182 2.25334 22.5182 2.25334L22.5216 2.26084Z" fill="black"/>
<path fill-rule="evenodd" clip-rule="evenodd" d="M19.9969 2.4834C19.9969 2.4834 20.4461 3.71173 20.7761 4.97257C21.1236 6.2284 21.3228 7.5209 21.3228 7.5209L20.9228 7.5884C20.9228 7.5884 20.6853 6.33173 20.3011 5.1084C19.9336 3.88007 19.4536 2.6959 19.4536 2.6959L19.9969 2.4834Z" fill="black"/>
<path fill-rule="evenodd" clip-rule="evenodd" d="M5.19092 9.51116L9.36259 8.58032L9.46175 8.93116L5.41675 10.3137L5.19092 9.51116Z" fill="black"/>
<path fill-rule="evenodd" clip-rule="evenodd" d="M4.69775 7.97246C4.69775 7.97246 4.94525 7.87412 5.34359 7.74162C5.73525 7.60996 6.26359 7.45912 6.79775 7.34162C7.86609 7.09912 8.94859 7.01746 8.94859 7.01746L8.99859 7.37829C8.99859 7.37829 7.95275 7.57496 6.95775 7.91912C6.46025 8.08746 5.97525 8.28496 5.62025 8.44912C5.27192 8.60996 5.03192 8.73579 5.03192 8.73579L4.69775 7.97246Z" fill="black"/>
<path fill-rule="evenodd" clip-rule="evenodd" d="M5.69043 11.057C5.69043 11.057 5.9521 11.0354 6.3446 11.002C6.73376 10.9629 7.2521 10.8862 7.7646 10.7745C8.79293 10.5604 9.7721 10.1495 9.7721 10.1495L9.92876 10.4787C9.92876 10.4787 8.9721 11.0095 7.9246 11.3512C7.4046 11.5262 6.87126 11.6662 6.46626 11.7529C6.06293 11.8312 5.79376 11.8837 5.79376 11.8837L5.69043 11.057Z" fill="black"/>
<path fill-rule="evenodd" clip-rule="evenodd" d="M2.97377 5.19868C2.97377 5.19868 2.9221 5.37284 2.83127 5.67701C2.78377 5.82951 2.72877 6.01368 2.6846 6.22451C2.6396 6.43618 2.57127 6.67118 2.53544 6.93701C2.43794 7.46451 2.37877 8.08868 2.38294 8.75701C2.40127 9.08951 2.40294 9.43701 2.46544 9.78201C2.5046 10.1312 2.59377 10.4762 2.6746 10.8228C2.7846 11.1612 2.88627 11.5028 3.03294 11.822C3.15794 12.1503 3.33627 12.4487 3.4921 12.7437C3.8346 13.3187 4.2071 13.8237 4.5646 14.2262C4.7321 14.4362 4.91377 14.6037 5.06377 14.7628C5.21294 14.9228 5.35377 15.0512 5.47127 15.1562C5.70377 15.367 5.8371 15.4878 5.8371 15.4878L5.65627 15.6995C5.65627 15.6995 5.52044 15.577 5.28127 15.3628C5.16127 15.257 5.01627 15.1262 4.8621 14.9637C4.70794 14.8012 4.52127 14.6303 4.3471 14.4162C3.97877 14.0053 3.59044 13.4878 3.23377 12.8953C3.0696 12.5912 2.88377 12.2828 2.7521 11.9428C2.59794 11.6128 2.4896 11.2587 2.37377 10.907C2.2871 10.5478 2.19294 10.1895 2.1496 9.82701C2.08294 9.46868 2.07877 9.10868 2.05794 8.76284C2.0496 8.07034 2.10627 7.42451 2.20377 6.88034C2.23877 6.60618 2.30877 6.35951 2.3546 6.13868C2.40044 5.91618 2.4546 5.73118 2.50044 5.57951C2.5896 5.27451 2.64127 5.10034 2.64127 5.10034L2.97377 5.19868Z" fill="black"/>
<path fill-rule="evenodd" clip-rule="evenodd" d="M14.1935 12.3245C14.1935 12.3245 13.876 12.6704 13.4152 13.3495C13.1893 13.6895 12.9227 14.1137 12.7093 14.6304C12.5093 15.1279 12.3143 15.8129 12.6677 16.3045C13.091 16.847 13.6552 17.3679 14.2502 17.932C14.8427 18.4987 15.4885 19.0862 16.0452 19.8295C16.3193 20.192 16.5693 20.6462 16.6868 21.1095C16.8102 21.5779 16.8885 22.0387 16.9535 22.512C17.0168 22.9829 17.0635 23.4579 17.0985 23.9354C17.111 24.1887 17.1427 24.3795 17.1318 24.6854C17.0968 25.0137 16.9185 25.2837 16.6785 25.4645C16.5593 25.5545 16.4235 25.622 16.281 25.6645C16.2085 25.6862 16.1402 25.7004 16.0602 25.7112L15.8802 25.7295C15.6085 25.7487 15.356 25.7337 15.0977 25.687C14.5877 25.5937 14.096 25.3654 13.7093 25.012C13.0202 24.277 12.4868 23.5679 11.9327 22.8412C10.8568 21.3929 9.95852 19.9645 9.38852 18.5954C9.24935 18.2537 9.14352 17.8937 9.06935 17.577C8.99852 17.2579 8.91602 17.1279 8.71518 16.9379C8.34768 16.5937 7.89852 16.3787 7.53852 16.2212C7.17185 16.0654 6.86935 15.9704 6.66435 15.9087C6.46185 15.8537 6.35352 15.8245 6.35352 15.8245L6.50935 15.167C6.50935 15.167 6.63018 15.2012 6.85852 15.2654C7.07935 15.3345 7.40268 15.4395 7.80185 15.6145C8.19768 15.7962 8.68518 16.0204 9.16685 16.4762C9.40685 16.6695 9.64102 17.1012 9.68685 17.427C9.75768 17.7454 9.84268 18.0454 9.96852 18.3679C10.4793 19.6479 11.3493 21.0787 12.3893 22.5045C12.9077 23.2045 13.4885 23.9745 14.0735 24.6145C14.3777 24.8987 14.7743 25.0904 15.1952 25.172C15.601 25.2404 16.1043 25.2629 16.3743 25.0562C16.5177 24.9554 16.6152 24.7895 16.6318 24.642C16.6427 24.4729 16.616 24.1887 16.606 23.9687C16.5752 23.4995 16.5343 23.0329 16.4777 22.5737C16.3552 21.6462 16.226 20.7679 15.681 20.0954C15.1727 19.3995 14.5418 18.8079 13.9577 18.2387C13.3718 17.6704 12.7968 17.1329 12.346 16.5412C12.0927 16.1954 12.0518 15.7704 12.0943 15.4254C12.1335 15.0712 12.2443 14.7637 12.3585 14.4854C12.5952 13.9304 12.876 13.4945 13.1135 13.1437C13.5968 12.4479 13.9302 12.0912 13.9302 12.0912L14.1935 12.3245Z" fill="black"/>
</svg>
