<svg width="25" height="26" viewBox="0 0 25 26" fill="none" xmlns="http://www.w3.org/2000/svg">
<path fill-rule="evenodd" clip-rule="evenodd" d="M6.05417 3.08712L2.98584 7.72812L12.215 13.1134L14.4992 4.88437L10.5425 1.948L6.05417 3.08712Z" fill="#F18B98"/>
<mask id="mask0" mask-type="alpha" maskUnits="userSpaceOnUse" x="2" y="0" width="21" height="26">
<path fill-rule="evenodd" clip-rule="evenodd" d="M22.7567 25.9247V0.8125L2.5 0.8125V25.9247H22.7567Z" fill="white"/>
</mask>
<g mask="url(#mask0)">
<path fill-rule="evenodd" clip-rule="evenodd" d="M3.30666 7.64569L12.1717 13.0358L14.9058 8.19087L14.935 8.11937L15.5667 7.02006L17.0067 4.46881L4.99666 7.35319C5.09916 7.12081 5.29166 6.9575 5.52666 6.89494L16.6858 3.89112L12.44 2.06056C12.3033 2.00125 12.1475 1.98744 12.0017 2.02237L6.5225 3.31912L3.30666 7.64569ZM5.04832 19.5976C5.46416 20.8569 6.28916 21.8652 6.90916 22.4901C7.67249 23.2587 8.59916 23.8713 9.66416 24.3117C10.92 24.8309 12.28 25.0567 13.5975 24.9649C14.1617 24.9251 14.725 24.8366 15.2708 24.7001C16.635 24.3596 17.9017 23.721 18.9367 22.8516C20.6417 21.4192 21.7308 19.2961 21.85 17.1731C21.9483 15.4172 21.4758 13.6891 20.52 12.3054C19.875 11.3702 19.075 10.591 18.1425 9.98894C17.49 9.56725 16.4633 9.01719 15.2758 8.78725C15.1775 8.76775 15.1183 8.75556 15.0658 8.76856C14.9967 8.78562 14.9683 8.836 14.9317 8.89937L12.2467 13.3007C12.0583 13.2097 11.4217 12.8546 10.35 12.242L8.85332 11.397L7.94082 10.8737C7.83499 10.8242 7.76832 10.7868 7.72082 10.7592C7.64499 10.7153 7.59332 10.6861 7.52582 10.7031C7.47666 10.7153 7.43832 10.7478 7.36832 10.8047C7.00082 11.1077 6.69166 11.4384 6.40999 11.7521C5.82082 12.4086 5.34082 13.2186 5.01999 14.0961C4.69332 14.9882 4.52832 15.9348 4.54332 16.8326C4.55499 17.4932 4.65416 18.1919 4.85582 19.0296L5.01749 18.9922L4.95666 19.0832L4.85916 19.0369L5.04832 19.5976ZM15.525 25.6304C14.7617 25.8205 13.9767 25.9196 13.1933 25.9245C9.595 25.9481 6.265 24.0159 4.71 21.0032C3.83167 19.3042 3.53 17.3469 3.85917 15.492C4.20833 13.5266 5.2925 11.7285 6.91 10.4293L7.0025 10.3546L2.5 7.81794L5.94583 2.56756C5.96167 2.544 5.99167 2.52775 6.0475 2.51394L6.17167 2.48712L12.33 0.814187C12.3642 0.806062 12.4017 0.828 12.46 0.864562L17.9958 3.88381L15.3517 8.21444L15.4675 8.23719C16.505 8.43544 17.5408 8.8295 18.4642 9.37631C20.2967 10.4642 21.685 12.1388 22.275 13.971C22.8708 15.8211 22.915 17.6402 22.4042 19.2327C21.7275 21.3428 20.3567 23.1498 18.5425 24.3214C17.6117 24.9227 16.5967 25.3631 15.5258 25.6296L15.525 25.6304Z" fill="#181716"/>
</g>
<path fill-rule="evenodd" clip-rule="evenodd" d="M16.4278 10.6469C16.4278 10.6469 16.5486 10.7086 16.7745 10.8248C17.0103 10.9564 17.3411 11.1514 17.7286 11.4529C18.1136 11.7543 18.5545 12.1614 18.9695 12.7025C19.3861 13.242 19.757 13.9277 20.0078 14.724L20.1003 15.0433L20.1636 15.3423C20.2111 15.5389 20.2511 15.7494 20.2695 15.9858C20.2986 16.2157 20.3203 16.4489 20.3128 16.6797C20.3186 16.912 20.3136 17.1477 20.282 17.3857C20.192 18.3372 19.8845 19.3252 19.3478 20.2311C18.8011 21.1297 18.0245 21.9382 17.0786 22.541C16.1453 23.148 14.9961 23.5177 13.8811 23.6087C11.567 23.828 9.2578 22.814 7.89113 21.2102C7.19613 20.4164 6.71696 19.4982 6.45946 18.5801C6.37196 18.325 6.35363 18.1308 6.29863 17.9074C6.2703 17.6742 6.22196 17.4385 6.21696 17.2167C6.1778 16.7699 6.20363 16.3352 6.24863 15.9232C6.34446 15.0961 6.61446 14.3697 6.91696 13.7693C7.22446 13.168 7.5778 12.6919 7.8978 12.3279C8.22613 11.9688 8.51113 11.7137 8.71446 11.5512C8.9203 11.3919 9.0303 11.3066 9.0303 11.3066L9.32946 11.6901C9.32946 11.6901 9.2303 11.7722 9.04446 11.9265C8.86113 12.0834 8.60613 12.3287 8.3153 12.6684C7.74863 13.3492 7.07113 14.4908 6.9053 15.9972C6.8703 16.3709 6.85113 16.7634 6.89196 17.1672C6.89863 17.3719 6.9453 17.5628 6.96863 17.7668C7.02196 17.9707 7.0578 18.2242 7.12696 18.3965C7.37113 19.222 7.8128 20.0402 8.44363 20.7438C9.06863 21.4531 9.89363 22.0332 10.8261 22.3972C11.7503 22.7718 12.797 22.927 13.7911 22.8222C14.8245 22.7125 15.7961 22.4175 16.6445 21.8813C17.4878 21.3556 18.187 20.6439 18.6836 19.8476C19.1695 19.044 19.4536 18.1641 19.5428 17.3142C19.5953 16.8925 19.5903 16.4619 19.547 16.08C19.5245 15.7152 19.412 15.2318 19.3228 14.9239C18.8861 13.4768 18.017 12.479 17.3395 11.9087C16.9978 11.6202 16.6978 11.4277 16.4986 11.3058C16.2811 11.1831 16.1645 11.1173 16.1645 11.1173L16.4278 10.6469Z" fill="#181716"/>
</svg>
