<svg width="25" height="22" viewBox="0 0 25 22" fill="none" xmlns="http://www.w3.org/2000/svg">
<path fill-rule="evenodd" clip-rule="evenodd" d="M9.6237 6.08488C9.61703 6.08405 9.61036 6.08405 9.60286 6.08321C9.61036 6.08071 9.61703 6.07655 9.62453 6.07405C9.62453 6.07738 9.6237 6.08155 9.6237 6.08488ZM17.1037 4.91572C16.5604 4.58905 15.7837 4.35655 15.152 4.44405C13.877 4.62072 13.3712 6.25822 12.6595 7.43655C12.622 7.37738 12.8212 7.10572 12.7637 7.07155C12.837 6.92155 12.247 6.50905 12.0962 6.34655C11.8554 6.08738 11.5987 5.81238 11.327 5.54155C11.2987 5.38405 11.2054 5.24405 11.0337 5.19822C11.0037 5.18988 10.9712 5.18072 10.9404 5.17155C10.2029 4.49572 9.36619 3.91738 8.43453 3.80155C7.57036 3.69322 6.88203 3.93488 6.30786 4.39238C6.19786 4.32405 6.05869 4.30738 5.89869 4.39655C5.60119 4.56405 5.37286 4.78238 5.21036 5.03822C4.92453 5.29238 4.68536 5.60238 4.53619 5.97405C4.36203 6.40572 4.34453 6.84072 4.34869 7.27405C4.25286 7.69822 4.20286 8.13738 4.19703 8.58988C3.95953 8.72572 3.83036 9.02821 4.07453 9.30071C6.15703 11.629 9.28036 12.8757 10.9345 15.6224C11.5112 16.579 11.5637 18.779 12.5404 18.2474C13.1645 17.9082 14.392 16.5457 14.8745 16.0349C15.2945 15.589 19.3937 12.1824 19.9437 10.4074C20.9929 7.01988 17.7487 5.30322 17.1037 4.91572Z" fill="#F08B98"/>
<path fill-rule="evenodd" clip-rule="evenodd" d="M11.8781 8.37664C12.3556 7.23914 12.979 6.17664 13.7898 5.22414C14.2081 4.7633 14.6631 4.3158 15.2206 3.98497C15.7648 3.64747 16.3965 3.38497 17.0673 3.35164C17.7273 3.27331 18.4256 3.4558 18.9773 3.66997C19.619 3.9458 20.1548 4.3233 20.604 4.8083C21.039 5.2958 21.4048 5.8508 21.6306 6.4583C21.8873 7.0558 22.0056 7.69664 22.0723 8.3358C22.1073 8.97664 22.0923 9.62747 21.9373 10.255C21.8115 10.8875 21.5706 11.4941 21.2656 12.0641C20.9473 12.6175 20.5273 13.1641 20.0881 13.5808C19.6715 14.0091 19.184 14.4991 18.7231 14.8866C16.8348 16.45 14.7831 17.28 12.629 18.9466H12.6273L12.254 19.0783L12.0548 18.66C11.8406 18.2425 11.5556 17.7875 11.2565 17.3891C10.9565 16.985 10.6231 16.5975 10.2681 16.2425C9.91647 15.885 9.54231 15.5458 9.14231 15.2466C8.74814 14.9375 8.31731 14.6808 7.88064 14.4416C7.41814 14.1933 6.93981 13.9358 6.48231 13.6208C6.02481 13.3233 5.59481 12.9741 5.19231 12.5916C4.39564 11.8258 3.72731 10.8383 3.47397 9.7108C3.34147 9.15247 3.30647 8.57497 3.35314 8.01247C3.36397 7.87247 3.38814 7.7333 3.40481 7.59414C3.41814 7.51414 3.41564 7.47914 3.44147 7.36164L3.48814 7.1708C3.53481 6.92664 3.63897 6.64247 3.74814 6.36164C3.98481 5.83664 4.26481 5.34247 4.65231 4.92164C5.02064 4.48914 5.47147 4.1208 5.98314 3.85747C6.48147 3.56414 7.06397 3.44914 7.63147 3.38247C8.20481 3.37414 8.78147 3.4358 9.30564 3.63914C9.57064 3.7333 9.83064 3.83497 10.0648 3.9833C10.3073 4.11664 10.549 4.24997 10.7581 4.42497C11.2115 4.73497 11.5856 5.12414 11.974 5.4958L11.6381 5.8283C11.2481 5.49747 10.874 5.14747 10.4415 4.8883C10.239 4.7358 10.0131 4.62997 9.78981 4.5233C9.57231 4.39914 9.33731 4.32664 9.10397 4.2558C8.64147 4.09414 8.15731 4.06914 7.68564 4.0883C7.22231 4.1683 6.75397 4.26914 6.35231 4.53164C5.94231 4.7658 5.57064 5.07664 5.26897 5.44997C4.94897 5.80664 4.71981 6.2458 4.53481 6.67497C4.45981 6.88664 4.37814 7.09164 4.32981 7.3658L4.28731 7.55747L4.26981 7.71414L4.23231 8.07664C4.20314 8.55997 4.24897 9.0383 4.35397 9.5008C4.56314 10.43 5.11564 11.2575 5.82231 11.9375C6.54564 12.6283 7.37314 13.15 8.30231 13.6316C8.78564 13.8941 9.25981 14.1758 9.69231 14.5141C10.1298 14.8433 10.5448 15.2033 10.9198 15.6008C11.2965 15.9958 11.6456 16.4158 11.9606 16.8608C12.2781 17.3091 12.559 17.7708 12.8115 18.2933L12.2381 18.1133H12.2398C13.269 17.28 14.2873 16.8916 15.2715 16.23C16.2623 15.5758 17.2306 14.8791 18.134 14.1233C18.5906 13.7358 19.0098 13.3691 19.4315 12.9366C19.8631 12.5233 20.1715 12.1008 20.4581 11.6175C20.7165 11.1291 20.9256 10.6083 21.0323 10.0608C21.1698 9.51914 21.1731 8.95497 21.1631 8.39914C21.1165 7.84664 21.029 7.2883 20.8198 6.7758C20.6398 6.24997 20.3398 5.7808 19.9898 5.36497C19.6331 4.9558 19.1698 4.6308 18.7156 4.41414C18.1606 4.1883 17.6615 4.0508 17.1198 4.09747C16.5856 4.10747 16.064 4.30914 15.5873 4.5883C15.099 4.85747 14.6815 5.25997 14.2781 5.66747C13.4915 6.50997 12.8365 7.51747 12.339 8.57247L11.8781 8.37664Z" fill="#181716"/>
</svg>
