<svg width="111" height="40" viewBox="0 0 111 40" fill="none" xmlns="http://www.w3.org/2000/svg">
<g id="Group 9">
<path id="Combined Shape" fill-rule="evenodd" clip-rule="evenodd" d="M22.1501 13.2012C26.2764 11.22 30.0237 8.83054 32.2134 4.61548C27.9002 6.33942 24.737 9.4434 22.1501 13.2012ZM29.8143 18.7234L29.6491 18.5267L29.4839 18.3301C28.996 18.6395 28.4924 18.931 27.9889 19.2226C26.872 19.8693 25.755 20.516 24.809 21.3575C22.2711 23.6145 19.8595 26.0339 17.5737 28.5506C16.7301 29.4794 15.8084 30.9834 17.0082 32.1791C18.0866 33.2529 19.4781 32.4388 20.4817 31.6979C22.1401 30.4734 23.8226 29.2035 25.1932 27.6777C27.4887 25.1234 29.213 22.1846 29.8143 18.7234ZM23.1666 9.53658C23.6959 9.09892 24.2093 8.6649 24.7148 8.23759L24.7149 8.23757C25.8894 7.24471 27.0211 6.28813 28.2077 5.40658C29.219 4.65559 30.3593 4.01479 31.5349 3.58137C32.16 3.35089 33.1535 3.42097 33.6805 3.79079C34.6315 4.45752 34.08 5.52405 33.5269 6.10004C32.1188 7.56693 30.6231 8.94863 29.128 10.3297L29.128 10.3297L29.1275 10.3302C28.7612 10.6685 28.395 11.0069 28.0301 11.3464C27.7822 11.5771 27.5008 11.7707 27.1531 12.0099L27.1531 12.01L27.153 12.01C26.9714 12.135 26.7718 12.2724 26.5493 12.434C28.7226 12.961 30.5032 13.6326 31.1149 15.8369C31.1543 15.9803 32.0233 16.0232 32.4481 15.9029C33.588 15.5808 34.7212 15.2349 35.8544 14.8891L35.8544 14.8891C37.0892 14.5123 38.3239 14.1355 39.5672 13.7893C41.3607 13.2899 42.1444 13.8849 42.4668 15.6619C42.1203 15.7084 41.7437 15.7181 41.3671 15.7278C40.5321 15.7493 39.697 15.7709 39.1906 16.1929C38.0717 17.126 37.2081 18.3849 36.3565 19.6263C36.1874 19.8729 36.0187 20.1189 35.8485 20.3614C35.6875 20.5908 35.7185 20.957 35.7496 21.3232C35.7639 21.4918 35.7782 21.6603 35.7738 21.8156C35.9267 21.7627 36.0959 21.7241 36.265 21.6854C36.6333 21.6013 37.0016 21.5173 37.2026 21.2858C38.0772 20.2777 38.8949 19.2194 39.7525 18.1093L39.7525 18.1093L39.7531 18.1085C40.0773 17.6889 40.4072 17.2618 40.7481 16.8273C42.4909 17.6852 44.1027 17.044 45.3499 15.175L45.3691 15.1461C45.5878 14.8177 45.8925 14.3604 46.1758 14.3451C46.6026 14.3221 47.0365 14.4335 47.4704 14.5449C47.6491 14.5908 47.8277 14.6367 48.0059 14.6732C47.9512 14.8101 47.9073 14.9578 47.8635 15.1054L47.8635 15.1055C47.7685 15.4255 47.6735 15.7455 47.4681 15.9564C47.3264 16.1019 47.1836 16.2465 47.0408 16.3912L47.0403 16.3917C45.7291 17.7196 44.4076 19.0579 43.835 21.2449C44.0388 21.1572 44.2271 21.0911 44.3977 21.0312C44.7211 20.9176 44.9809 20.8264 45.163 20.6527C46.9488 18.9526 48.7 17.2149 50.4484 15.4756C50.5602 15.3645 50.6546 15.2092 50.7462 15.0583C50.8859 14.8283 51.0193 14.6087 51.1984 14.5723C51.7595 14.4581 52.5031 14.4143 52.9396 14.6999C53.6392 15.1578 53.2497 15.4789 52.863 15.7977C52.7667 15.877 52.6706 15.9563 52.5915 16.0374C51.1848 17.4827 50.0489 19.0916 49.7844 21.2424C53.8629 19.1385 57.2359 16.3833 58.6624 11.5996L43.5162 10.6865L43.5168 10.6714C43.5218 10.5245 43.5268 10.3781 43.5315 10.2317C43.8138 10.2317 44.096 10.2321 44.3783 10.2326H44.3784C44.9901 10.2337 45.602 10.2347 46.2136 10.2309C47.3776 10.2238 48.5417 10.214 49.7057 10.2042H49.7058C52.6893 10.179 55.6727 10.1538 58.6559 10.1754C59.6539 10.1827 60.0446 9.64716 60.4815 8.91643C61.9988 6.3771 63.5338 3.84669 65.1255 1.35394C66.2184 -0.357035 66.4121 -0.347313 68.1195 0.828579L65.8261 4.00293L65.7958 4.04497C64.4831 5.86179 63.1277 7.73783 61.6608 9.76868C63.7754 9.63703 65.3506 9.60301 65.6653 11.9167C65.3184 11.8817 64.9766 11.8401 64.6384 11.7989C63.8416 11.7019 63.0646 11.6073 62.2878 11.6073C61.7018 11.6073 60.7975 11.7612 60.5804 12.1521C59.38 14.3152 58.2584 16.5226 57.052 18.8968L57.0519 18.897L57.0511 18.8986C56.6638 19.6608 56.2678 20.4402 55.8577 21.2408C56.1603 21.2031 56.3911 21.1889 56.5686 21.178C56.8454 21.1609 56.9926 21.1518 57.0808 21.0743C57.6544 20.5705 58.2376 20.075 58.8209 19.5795C60.4372 18.2064 62.0546 16.8324 63.4731 15.2751C64.5921 14.0465 65.5069 13.7602 67.1034 14.4953C64.9089 16.3619 63.205 18.469 62.5105 21.3708C64.939 20.715 67.1014 19.6449 68.9109 17.8018C70.1236 16.5668 71.384 15.3265 72.8089 14.3698C74.2651 13.3919 74.9327 13.7634 75.9621 15.7032C72.7852 15.9118 70.9085 17.8023 69.5006 20.2768C69.5606 20.3551 69.6205 20.4334 69.6804 20.5117L69.6871 20.5204L69.6925 20.5276C69.7528 20.6064 69.8131 20.6852 69.8736 20.7641C70.0643 20.6092 70.2545 20.4538 70.4448 20.2983L70.4472 20.2963L70.4474 20.2962C70.8973 19.9286 71.3472 19.561 71.8036 19.2013C71.9946 19.0508 72.1813 18.8887 72.3683 18.7264L72.3684 18.7264C72.8502 18.3081 73.3334 17.8887 73.8925 17.6637C74.2968 17.5009 74.794 17.5717 75.2911 17.6425C75.5125 17.674 75.734 17.7055 75.9472 17.7164C75.9333 17.9094 75.9377 18.1121 75.9422 18.3149C75.9518 18.7548 75.9615 19.1945 75.7832 19.5339C74.4383 22.0927 73.0259 24.617 71.5713 27.1146C69.1742 31.2308 66.9692 35.4338 65.4864 40C65.4919 36.2169 67.0706 32.9165 68.6371 29.6415L68.7329 29.4413C69.8289 27.1491 71.0099 24.8985 72.191 22.6477L72.1915 22.6466C72.7103 21.658 73.229 20.6694 73.7406 19.6773L73.5785 19.5392C73.4704 19.4471 73.3624 19.355 73.2546 19.2629C73.0532 19.4044 72.8493 19.5429 72.6454 19.6813L72.6451 19.6815L72.645 19.6816C72.1779 19.9988 71.7109 20.3159 71.2731 20.6697C71.0097 20.8826 70.7688 21.1249 70.528 21.367C70.2457 21.651 69.9635 21.9347 69.6457 22.1704C69.1885 22.5099 68.6895 22.7921 68.1904 23.0744L68.19 23.0746C67.974 23.1968 67.7579 23.3191 67.5451 23.446C67.4062 22.961 67.267 22.4764 67.1177 21.9566L67.1131 21.9405L66.8128 20.8949C66.5446 21.0622 66.2706 21.2468 65.9894 21.4363L65.9894 21.4363C65.3117 21.8929 64.5919 22.3779 63.81 22.7169C63.2262 22.9699 62.5669 23.0452 61.9076 23.1204L61.9076 23.1204C61.615 23.1538 61.3225 23.1872 61.0366 23.2361C61.0315 22.9659 61.0236 22.6955 61.0156 22.425C60.9956 21.7503 60.9757 21.0755 61.0012 20.4023C61.0067 20.2583 61.0398 20.1154 61.0755 19.9614L61.0755 19.9614C61.1345 19.7064 61.2006 19.4212 61.16 19.0502L60.4441 19.6949L60.4434 19.6955C59.6952 20.3695 58.9471 21.0433 58.1957 21.7139C58.1609 21.7451 58.1261 21.777 58.0912 21.809L58.091 21.8092C57.9258 21.9607 57.7574 22.1151 57.5631 22.2093C57.3137 22.3303 57.0357 22.4964 56.755 22.664C56.0728 23.0714 55.375 23.4882 55.0361 23.2904C53.9856 22.6787 54.3654 21.5876 54.7117 20.5928L54.7118 20.5924C54.7585 20.4584 54.8045 20.3261 54.8464 20.197C54.8971 20.041 54.9148 19.874 54.9369 19.6663V19.6663C54.9484 19.5579 54.9611 19.4385 54.9802 19.3038C54.5375 19.647 54.1111 19.9874 53.693 20.321L53.6929 20.3211C52.6966 21.1162 51.7478 21.8735 50.7402 22.5403C50.2893 22.8384 49.7276 22.9667 49.166 23.095C48.9111 23.1533 48.6563 23.2115 48.4118 23.2856C48.3725 23.0644 48.3324 22.8435 48.2922 22.6226L48.292 22.6215C48.1934 22.0787 48.0947 21.5359 48.0091 20.9909C47.9848 20.8344 47.9897 20.6733 47.996 20.4597V20.4595C47.9995 20.3436 48.0034 20.2122 48.0034 20.0576C47.6333 20.3652 47.2793 20.6684 46.9338 20.9642L46.9338 20.9642C46.0989 21.6791 45.3138 22.3514 44.4712 22.9405C43.999 23.2706 42.9784 23.5367 42.7276 23.2912C42.3072 22.8805 42.0657 21.9922 42.177 21.3846C42.3265 20.5664 42.6233 19.7756 42.9371 18.9392C43.0712 18.5819 43.2084 18.2163 43.3386 17.8367C41.8418 17.6682 40.7843 17.7998 40.1199 19.5254C39.4692 21.2149 38.2513 22.71 36.4056 23.271C35.7472 23.4715 34.7452 23.356 34.2339 22.9538C33.8204 22.6286 33.5985 21.5191 33.8276 20.9962C34.4401 19.5981 35.1685 18.2514 35.9325 16.8389C36.2264 16.2957 36.5254 15.7427 36.8252 15.1734C36.3819 15.35 35.9399 15.5185 35.5012 15.6857C34.3739 16.1155 33.268 16.5371 32.2154 17.0667C31.7725 17.2899 31.4481 18.0595 31.3509 18.6274C30.2274 25.1845 26.9336 30.2777 21.2558 33.6839C20.0939 34.381 18.6469 34.7929 17.2932 34.9201C15.1991 35.1174 14.0994 33.5697 14.6259 31.5265C15.3964 28.5352 17.1641 26.1157 19.4455 24.2302C21.3153 22.6852 23.3177 21.3043 25.3205 19.9232L25.3206 19.9231C26.2923 19.253 27.2642 18.5828 28.221 17.8938C28.3902 17.772 28.6041 17.6849 28.8193 17.5973C29.4063 17.3583 30.0028 17.1155 29.7266 16.1537C29.3958 15.0009 28.5964 14.2304 27.4067 14.273C26.0212 14.3228 24.5995 14.4678 23.276 14.8567C21.4588 15.3901 19.9793 16.4032 18.9572 18.1952C17.048 21.5418 14.6163 24.5109 11.6665 27.0056C11.0081 27.5626 10.2778 28.1054 9.48758 28.408C8.96237 28.6087 8.27547 28.3804 7.69643 28.1881L7.6841 28.184C14.3807 23.4294 18.5886 17.0598 21.1831 9.53739C21.6747 8.11238 21.8431 6.47877 21.7522 4.96628C21.5891 2.25601 19.9721 1.03313 17.2767 1.29399C14.3028 1.58199 11.855 3.10259 9.50165 4.80061C6.74718 6.78824 4.44289 9.20929 2.74994 12.1804C1.11326 15.0523 0.560595 18.0728 1.75274 21.3465C0.409869 20.3444 -0.0250254 19.3933 0.00110044 17.4162C0.0332553 14.9968 0.76518 12.7515 1.9939 10.7113C4.6322 6.3289 8.18169 2.92801 12.9997 1.09592C14.353 0.581491 15.8498 0.27 17.2936 0.215316C20.9154 0.0788109 23.3841 2.60315 23.364 6.23938C23.3599 6.95053 23.3053 7.66111 23.2472 8.41638L23.2472 8.41653C23.2194 8.77799 23.1908 9.14969 23.1666 9.53658ZM92.3213 18.8963C92.3898 18.99 92.4585 19.0835 92.5273 19.1771L92.6133 19.2941L93.4508 18.6914L93.4839 18.6676C94.4173 17.9958 95.3507 17.3241 96.2845 16.6527C96.2177 16.5613 96.1509 16.4703 96.0841 16.3793L95.9837 16.2424C94.3082 16.5075 93.1697 17.5048 92.3213 18.8963ZM89.4552 21.0606C89.0634 21.3653 88.6956 21.6688 88.3395 21.9628C87.5317 22.6295 86.7835 23.247 85.9505 23.7165C85.2254 24.1259 84.0999 24.3733 83.3974 24.093C83.0823 23.968 82.9817 23.3097 82.8819 22.6569L82.8819 22.6569C82.8389 22.3755 82.796 22.0951 82.7362 21.859C82.7041 21.7318 82.6901 21.6001 82.6752 21.4603C82.6681 21.3939 82.6608 21.3256 82.6513 21.2551C82.2805 21.5172 81.9167 21.7843 81.5549 22.0499C80.6642 22.7039 79.7857 23.3488 78.8461 23.8881C78.2973 24.2029 77.2705 24.3645 76.8596 24.0625C76.4451 23.7586 76.2162 22.6606 76.4423 22.1393C77.368 20.0043 78.39 17.8922 79.5923 15.8996C80.3364 14.667 81.2354 15.277 82.1857 15.9219C82.2621 15.9738 82.3389 16.0258 82.4159 16.0772C80.3485 17.7988 79.1503 19.878 78.3621 22.2801C80.9353 21.3397 82.9756 19.7505 84.6556 17.6825C84.9522 17.3172 85.2236 16.9317 85.4951 16.5461C85.6474 16.3297 85.7997 16.1133 85.9566 15.9004C86.5689 15.0683 87.2818 15.0534 88.0114 15.7183C88.7212 16.3657 88.276 16.6656 87.8439 16.9568C87.7231 17.0382 87.6032 17.119 87.5099 17.2065C85.8619 18.7524 84.7223 20.5657 84.1666 23.2918C86.9971 22.1048 89.0192 20.6131 90.3663 18.3502C91.4142 16.5897 92.5829 14.9965 94.4485 14.0373C95.927 13.2774 97.332 13.6359 97.7336 15.1124C97.8745 15.6303 97.6446 16.2473 97.4185 16.8543C97.3176 17.1253 97.2174 17.3943 97.1512 17.6516C97.9215 17.4649 98.7103 17.2729 99.5128 17.0776L99.5134 17.0774C101.682 16.5495 103.951 15.9973 106.223 15.4597C106.313 15.4385 106.403 15.4172 106.492 15.3958C107.386 15.1832 108.289 14.9683 109.197 14.9115C109.799 14.8742 110.424 15.1858 111 15.5872C104.573 16.0471 98.5468 17.7418 92.7038 20.1515C90.9002 20.8954 90.6899 22.6542 92.2384 23.8512C92.6958 24.2053 93.3012 24.4523 93.8738 24.5566C94.5221 24.6745 95.2197 24.6456 95.8801 24.5606C99.329 24.1159 103.016 21.533 104.882 18.5976C104.836 18.7983 104.802 19.0052 104.768 19.2121L104.768 19.2124L104.768 19.2125C104.694 19.6575 104.621 20.1023 104.425 20.4855C102.55 24.1576 96.9494 26.7329 92.8927 25.8466C90.7129 25.3698 89.8729 24.2494 89.4552 21.0606ZM68.7287 9.16412C68.4769 9.72096 68.2251 10.2778 67.9694 10.8322C68.1147 10.9306 68.26 11.0289 68.4057 11.1272C68.7881 10.7137 69.1695 10.2992 69.551 9.88457C70.4944 8.85931 71.4378 7.83398 72.3948 6.82461C72.9941 6.19282 72.8202 5.68653 72.2283 5.2859C72.1543 5.23571 72.0776 5.17799 71.9991 5.1189C71.5352 4.7697 71.0078 4.37271 70.5887 5.20223C69.933 6.50099 69.3308 7.83255 68.7287 9.16412Z" fill="black"/>
</g>
</svg>
