<svg width="25" height="22" viewBox="0 0 25 22" fill="none" xmlns="http://www.w3.org/2000/svg">
<path fill-rule="evenodd" clip-rule="evenodd" d="M17.2888 7.51394L17.2797 7.72978H17.3163C17.2772 6.06311 16.9422 3.88561 15.7688 2.73478C14.4347 1.42478 12.8555 1.06311 12.108 1.06311H11.7563L9.59551 1.85478L7.25884 3.67228L6.20551 6.64894L5.95801 8.55644L6.20551 9.14728L6.53884 11.2798L6.24384 13.6489L6.20634 14.0823L7.60217 13.9531L8.96217 14.0156L8.19967 12.8381L7.38301 10.7431L6.98217 8.62228L8.86634 7.54311L10.298 6.34561L11.9913 6.89228L14.0222 6.31894L14.9597 5.48561L16.2263 6.67561L17.2888 7.51394Z" fill="#F6CEA9"/>
<path fill-rule="evenodd" clip-rule="evenodd" d="M17.254 9.39624H17.144L17.0682 10.2129L16.3832 12.4229L15.269 14.5246C15.269 14.5246 16.6624 14.1787 17.109 14.1787C17.5549 14.1787 17.9807 14.2246 17.6674 13.3854C17.3474 12.5271 17.2174 10.2296 17.254 9.39624Z" fill="#F6CEA9"/>
<path fill-rule="evenodd" clip-rule="evenodd" d="M11.4752 7.3476C11.6427 7.34093 11.8769 7.32177 12.1535 7.2751C12.4319 7.23427 12.7502 7.15343 13.0844 7.04927C13.416 6.93343 13.766 6.79343 14.0894 6.60093C14.4185 6.42093 14.7194 6.18927 14.9777 5.95093C15.0102 5.9251 15.036 5.8951 15.0652 5.86677C15.1052 5.93343 15.151 6.00593 15.2035 6.08427C15.4027 6.38843 15.6994 6.77343 16.051 7.10843C16.3994 7.4476 16.8002 7.73093 17.1227 7.90427C17.2827 7.99427 17.4219 8.05677 17.5219 8.09593C17.6202 8.1376 17.676 8.16177 17.676 8.16177L17.8577 7.70927C17.8577 7.70927 17.8094 7.68593 17.7244 7.64427C17.6385 7.60593 17.5177 7.54427 17.381 7.4576C17.1035 7.2901 16.7602 7.02093 16.4635 6.70177C16.1635 6.38593 15.9127 6.02427 15.7477 5.74343C15.636 5.55593 15.5685 5.4176 15.5335 5.34093C15.561 5.3026 15.5894 5.26427 15.6144 5.22677C15.6944 5.10927 15.7802 5.00093 15.831 4.90677C15.8819 4.81177 15.9269 4.7301 15.9635 4.66177C16.0369 4.52593 16.0794 4.44843 16.0794 4.44843L15.656 4.20593C15.656 4.20593 15.611 4.28093 15.531 4.41343C15.491 4.47927 15.4419 4.55927 15.386 4.65093C15.331 4.74343 15.2569 4.8201 15.1835 4.91843C15.111 5.01427 15.0302 5.11677 14.9235 5.2151C14.8219 5.31427 14.7244 5.42843 14.5977 5.51927C14.361 5.71677 14.0885 5.9076 13.791 6.05093C13.5002 6.20593 13.1844 6.31343 12.8877 6.40177C12.5869 6.47927 12.3019 6.5376 12.0544 6.56093C11.5594 6.6201 11.2319 6.58593 11.2494 6.58843L11.2002 7.35093C11.2002 7.35093 11.2269 7.35177 11.2785 7.3526C11.3252 7.3526 11.3927 7.35177 11.4752 7.3476Z" fill="black"/>
<mask id="mask0" mask-type="alpha" maskUnits="userSpaceOnUse" x="4" y="0" width="17" height="22">
<path fill-rule="evenodd" clip-rule="evenodd" d="M20.049 0.833374V21.6237H4.1665V0.833374L20.049 0.833374V0.833374Z" fill="white"/>
</mask>
<g mask="url(#mask0)">
<path fill-rule="evenodd" clip-rule="evenodd" d="M9.72519 14.7206C7.96102 13.0506 7.42935 10.0197 7.29602 8.98474C7.39602 8.93974 7.49769 8.8989 7.59769 8.85224C7.83102 8.7414 8.05519 8.6264 8.28769 8.49224C8.40852 8.4239 8.49602 8.3689 8.61519 8.28807C8.72102 8.21307 8.83019 8.14474 8.93269 8.06557C9.34852 7.7614 9.74102 7.42724 10.1019 7.06307C10.4552 6.6889 10.7894 6.30974 11.0719 5.86224L10.6719 5.58307C10.371 5.93974 10.0252 6.2889 9.66352 6.60057C9.30185 6.9164 8.92269 7.21057 8.52185 7.4689C8.42352 7.5364 8.31852 7.5939 8.21769 7.65724L7.90769 7.8339C7.70852 7.94474 7.48852 8.05224 7.27185 8.14974C7.02352 8.26224 6.76602 8.36557 6.50852 8.46224C6.55352 8.00307 6.60935 7.54224 6.69019 7.09057C6.80935 6.44057 6.96185 5.7914 7.20685 5.2089C7.46102 4.6014 7.77935 4.05307 8.19102 3.55224C8.59685 3.05557 9.07685 2.62307 9.61769 2.29057C10.1577 1.95724 10.7627 1.73974 11.3877 1.6389C12.0094 1.53807 12.671 1.5539 13.3152 1.63974C14.6002 1.8064 15.836 2.34724 16.7035 3.2864C17.5835 4.21557 18.0627 5.47974 18.2535 6.77724C18.3602 7.44057 18.3702 8.0564 18.2777 8.71974C18.1877 9.37974 18.0802 10.0831 18.0635 10.7781C18.0277 11.4747 18.0802 12.1947 18.1977 12.8747C18.2535 13.2181 18.3219 13.5564 18.3894 13.8897C18.421 14.0539 18.4602 14.2289 18.4794 14.3756C18.4969 14.5114 18.4919 14.6414 18.4577 14.7506C18.3919 14.9597 18.2019 15.0672 17.9152 15.0706C17.641 15.0747 17.3152 14.9706 16.9735 14.8972C16.5385 14.7914 16.0619 14.7356 15.591 14.7756C16.8952 13.1456 17.4277 10.6481 17.6294 9.29474L17.1469 9.22307C16.851 11.2181 15.8102 15.8564 12.5535 15.8564C11.3677 15.8564 10.4444 15.4022 9.72519 14.7214V14.7206ZM8.23851 14.9097C8.01518 14.9381 7.77351 14.9689 7.51851 15.0014C7.29601 15.0289 7.04684 15.0281 6.88268 14.9639C6.72434 14.9031 6.65351 14.8006 6.62351 14.5589C6.59934 14.3281 6.63934 14.0439 6.69184 13.7606C6.74434 13.4747 6.81434 13.1822 6.86268 12.8739C6.91101 12.5597 6.92184 12.2556 6.92184 11.9639C6.92268 11.3756 6.82601 10.8347 6.77101 10.4039C6.71184 9.91473 6.66434 9.51973 6.63351 9.25807C6.69851 9.23307 6.76684 9.20973 6.83184 9.1839C6.99268 10.3206 7.53268 13.0556 9.12184 14.7972C8.88268 14.8281 8.58351 14.8656 8.23851 14.9097ZM19.8902 20.7214C19.8118 20.5089 19.756 20.2922 19.6577 20.0872C19.5652 19.8797 19.471 19.6756 19.346 19.4831C19.2385 19.2847 19.0902 19.1072 18.9543 18.9272C18.8019 18.7581 18.6494 18.5914 18.4735 18.4472C18.3019 18.2997 18.1185 18.1672 17.9243 18.0547C17.7327 17.9372 17.5277 17.8456 17.3202 17.7631C17.2135 17.7272 17.1102 17.6889 17.0002 17.6614C16.8902 17.6306 16.7868 17.6097 16.6577 17.5906L16.4827 17.5656L16.3985 17.7314L16.3968 17.7347C16.326 17.8706 16.2027 18.0314 16.0735 18.1614C15.946 18.2989 15.796 18.4181 15.6435 18.5322C15.486 18.6414 15.321 18.7397 15.1477 18.8272C14.9718 18.9089 14.7968 18.9931 14.6093 19.0506C14.2427 19.1856 13.8527 19.2597 13.4627 19.3214C13.266 19.3389 13.0777 19.3664 12.8752 19.3764C12.6743 19.3814 12.4552 19.3947 12.271 19.3914C11.871 19.3847 11.4727 19.3606 11.081 19.2997C10.6902 19.2372 10.3035 19.1481 9.93518 19.0147C9.75268 18.9456 9.56852 18.8756 9.39768 18.7847C9.22268 18.6989 9.05602 18.5989 8.89685 18.4906C8.78102 18.4097 8.67102 18.3222 8.56602 18.2297C8.65852 18.1847 8.78102 18.1189 8.92518 18.0306C9.22852 17.8489 9.61102 17.5714 9.96018 17.2572C10.3118 16.9456 10.6293 16.5997 10.8535 16.3264C10.9268 16.2397 10.9868 16.1631 11.0402 16.0931C11.496 16.2514 11.9968 16.3439 12.5535 16.3439C13.0093 16.3439 13.426 16.2664 13.806 16.1264C13.9193 16.2739 14.0943 16.4947 14.3144 16.7464L14.4585 16.9131C14.6785 17.1689 14.8518 17.3714 15.2185 17.6531L15.516 17.2672C15.1893 17.0156 15.0452 16.8489 14.8277 16.5956L14.681 16.4256C14.511 16.2314 14.3677 16.0547 14.2618 15.9181C14.531 15.7731 14.7802 15.5956 15.0102 15.3922C15.6002 15.2047 16.2268 15.2456 16.8543 15.4072C17.176 15.4789 17.5052 15.6039 17.916 15.6139C18.1168 15.6156 18.3368 15.5822 18.5443 15.4689C18.7527 15.3581 18.916 15.1489 18.991 14.9339C19.0644 14.7189 19.071 14.5006 19.0493 14.2997C19.0268 14.1081 18.991 13.9497 18.961 13.7789C18.8985 13.4439 18.8369 13.1139 18.7885 12.7831C18.6869 12.1189 18.6427 11.4722 18.6952 10.8081C18.7327 10.1397 18.8294 9.4939 18.931 8.80557C19.0377 8.11973 19.031 7.35973 18.9227 6.67723C18.8218 5.98057 18.6485 5.28723 18.3719 4.62557C18.0944 3.9664 17.7143 3.3389 17.2177 2.80723C16.7252 2.2739 16.126 1.83807 15.4735 1.52557C14.821 1.21307 14.1219 1.01807 13.416 0.918066C12.7127 0.820566 11.9977 0.795566 11.2718 0.905566C10.5527 1.01723 9.84935 1.26557 9.22685 1.6439C8.60352 2.0214 8.05602 2.51057 7.59685 3.06473C7.13685 3.61223 6.76268 4.25473 6.48768 4.9014C6.20102 5.57557 6.03935 6.2614 5.90852 6.94807C5.78352 7.63807 5.69185 8.3189 5.65102 9.0264L5.61685 9.61723L6.15102 9.4364C6.17518 9.6939 6.20768 10.0431 6.24685 10.4614C6.29435 10.9231 6.37018 11.4214 6.35518 11.9597C6.34768 12.2297 6.33102 12.5064 6.28185 12.7756C6.23102 13.0489 6.15435 13.3381 6.09018 13.6397C6.02768 13.9431 5.96435 14.2572 5.98768 14.6156C6.00185 14.7939 6.04352 14.9914 6.15518 15.1764C6.26602 15.3622 6.45268 15.5022 6.62935 15.5747C6.99185 15.7181 7.30685 15.7006 7.59185 15.6806C7.84852 15.6556 8.09102 15.6322 8.31435 15.6106C9.20935 15.5247 9.80602 15.4672 9.80602 15.4672L9.80185 15.4272C9.96352 15.5506 10.1352 15.6622 10.3143 15.7639C10.2918 15.7981 10.2718 15.8289 10.246 15.8672C10.0643 16.1331 9.80185 16.4781 9.50602 16.7922C9.21268 17.1089 8.88685 17.3922 8.62685 17.5822C8.49852 17.6789 8.38685 17.7522 8.30602 17.7997C8.26352 17.8264 8.23268 17.8456 8.21102 17.8589C8.17268 17.8097 8.13185 17.7597 8.10435 17.7147L8.01352 17.3989L7.85018 17.2581H7.84518C7.71185 17.2581 7.60852 17.4731 7.49602 17.5072C7.38685 17.5406 7.27935 17.6622 7.17435 17.7056C6.96435 17.7914 6.76185 17.9381 6.57018 18.0581C6.37768 18.1772 6.19102 18.3297 6.02018 18.4781C5.93185 18.5497 5.84518 18.6339 5.76685 18.7156C5.68768 18.7956 5.60102 18.8764 5.52768 18.9622C5.37852 19.1322 5.22852 19.3064 5.10102 19.4931C4.96102 19.6722 4.85102 19.8697 4.73185 20.0622C4.61518 20.2564 4.51852 20.4722 4.41268 20.6789L4.16602 21.2639L5.19185 21.6239L5.36602 21.0189C5.43435 20.8439 5.48768 20.6647 5.56768 20.4872C5.65018 20.3114 5.72435 20.1281 5.82602 19.9622C5.91602 19.7881 6.02602 19.6289 6.13602 19.4681C6.18935 19.3864 6.25518 19.3156 6.31435 19.2381C6.37268 19.1597 6.43852 19.0889 6.50602 19.0189C6.63685 18.8747 6.78185 18.7447 6.93352 18.6231C7.08518 18.5014 7.24685 18.3914 7.41602 18.2972C7.50018 18.2497 7.58685 18.2064 7.67435 18.1681C7.71435 18.1497 7.75768 18.1331 7.79852 18.1172C7.89768 18.2489 7.99935 18.3664 8.11268 18.4781C8.26935 18.6339 8.44185 18.7672 8.62018 18.8914C8.79935 19.0139 8.98518 19.1256 9.17852 19.2197C9.36935 19.3206 9.57018 19.3981 9.77018 19.4731C10.1727 19.6189 10.5885 19.7147 11.0068 19.7814C11.4252 19.8464 11.8468 19.8722 12.2668 19.8789C12.4918 19.8814 12.6818 19.8681 12.8918 19.8639C13.0985 19.8539 13.316 19.8239 13.5277 19.8047C13.9468 19.7381 14.366 19.6589 14.7702 19.5106C14.9743 19.4464 15.171 19.3539 15.366 19.2631C15.5602 19.1656 15.7469 19.0539 15.926 18.9297C16.1018 18.7989 16.2735 18.6614 16.426 18.4989C16.5368 18.3822 16.6343 18.2572 16.7268 18.1172C16.7643 18.1297 16.8027 18.1431 16.8393 18.1589C16.9277 18.1914 17.0127 18.2356 17.0985 18.2747C17.2652 18.3656 17.4285 18.4614 17.5768 18.5781C17.7285 18.6906 17.8677 18.8181 17.9943 18.9547C18.1243 19.0889 18.2335 19.2414 18.3418 19.3914C18.4343 19.5539 18.5393 19.7064 18.6077 19.8814C18.691 20.0472 18.7485 20.2264 18.8052 20.4039C18.8677 20.5789 18.8918 20.7714 18.9377 20.9514C18.966 21.1381 18.9835 21.3281 19.0085 21.5147L20.0493 21.3731C19.996 21.1547 19.9493 20.9364 19.8902 20.7214Z" fill="black"/>
</g>
</svg>
