<svg width="23" height="13" viewBox="0 0 23 13" fill="none" xmlns="http://www.w3.org/2000/svg">
<g id="Page 1">
<path id="Fill 1" fill-rule="evenodd" clip-rule="evenodd" d="M0 0.894C0 0.894 5.333 0.465 10.667 0.23C12 0.174 13.333 0.013 14.583 0C15.833 0.002 16.833 0.099 17.833 0.23C19.833 0.468 21 0.894 21 0.894V1.084C21 1.084 19.833 1.51 17.833 1.748C16.833 1.879 15.75 1.977 14.5 1.978C13.25 1.965 11.958 1.804 10.625 1.748C5.292 1.513 0 1.084 0 1.084V0.894Z" fill="black"/>
<path id="Fill 3" fill-rule="evenodd" clip-rule="evenodd" d="M1 5.78701C1 5.78701 2.333 5.46901 4.333 5.24401C6.333 4.99201 9 4.84101 11.667 4.83801C14.333 4.83901 17 4.98801 19 5.24201C21 5.46801 22.333 5.78701 22.333 5.78701C22.333 5.78701 21 6.10601 19 6.33201C17 6.58601 14.333 6.73501 11.667 6.73601C9 6.73301 6.333 6.58201 4.333 6.33001C2.333 6.10501 1 5.78701 1 5.78701Z" fill="black"/>
<g id="Group 7">
<mask id="mask0" mask-type="alpha" maskUnits="userSpaceOnUse" x="0" y="10" width="21" height="3">
<path id="Clip 6" fill-rule="evenodd" clip-rule="evenodd" d="M21 12.5737H0V11.5848V10.5959H21V12.5737Z" fill="white"/>
</mask>
<g mask="url(#mask0)">
<path id="Fill 5" fill-rule="evenodd" clip-rule="evenodd" d="M21 11.6799C21 11.6799 15.833 12.1089 10.5 12.3439C9.167 12.3999 7.917 12.5609 6.667 12.5739C5.417 12.5719 4.292 12.4749 3.292 12.3439C1.292 12.1059 0 11.6799 0 11.6799V11.4899C0 11.4899 1.333 11.0639 3.333 10.8259C4.333 10.6949 5.5 10.5969 6.75 10.5959C8 10.6089 9.167 10.7699 10.5 10.8259C15.833 11.0609 21 11.4899 21 11.4899V11.6799Z" fill="black"/>
</g>
</g>
</g>
</svg>
